<svg width="303" height="13" viewBox="0 0 303 13" fill="none" xmlns="http://www.w3.org/2000/svg">
<path d="M169.464 10.8825C169.079 11.5509 168.115 11.5509 167.73 10.8825L164.113 4.59596C163.729 3.9293 164.21 3.0972 164.98 3.0972L172.215 3.0972C172.984 3.0972 173.465 3.9293 173.082 4.59596L169.464 10.8825Z" fill="white"/>
<path d="M160.915 10.8825C160.531 11.5509 159.566 11.5509 159.182 10.8825L155.564 4.59596C155.181 3.9293 155.662 3.0972 156.431 3.0972L163.666 3.0972C164.435 3.0972 164.917 3.9293 164.533 4.59596L160.915 10.8825Z" fill="white"/>
<path d="M152.367 10.8825C151.982 11.5509 151.018 11.5509 150.633 10.8825L147.016 4.59596C146.632 3.9293 147.113 3.0972 147.882 3.0972L155.118 3.0972C155.887 3.0972 156.368 3.9293 155.984 4.59596L152.367 10.8825Z" fill="white"/>
<path d="M143.818 10.8825C143.434 11.5509 142.469 11.5509 142.085 10.8825L138.467 4.59596C138.083 3.9293 138.565 3.0972 139.334 3.0972L146.569 3.0972C147.338 3.0972 147.819 3.9293 147.436 4.59596L143.818 10.8825Z" fill="white"/>
<path d="M135.27 10.8825C134.885 11.5509 133.921 11.5509 133.536 10.8825L129.919 4.59596C129.535 3.9293 130.016 3.0972 130.785 3.0972L138.02 3.0972C138.79 3.0972 139.271 3.9293 138.887 4.59596L135.27 10.8825Z" fill="white"/>
<path d="M126.721 10.8825C126.336 11.5509 125.372 11.5509 124.987 10.8825L121.37 4.59596C120.986 3.9293 121.467 3.0972 122.237 3.0972L129.472 3.0972C130.241 3.0972 130.722 3.9293 130.339 4.59596L126.721 10.8825Z" fill="white"/>
<path d="M118.172 10.8825C117.788 11.5509 116.823 11.5509 116.439 10.8825L112.821 4.59596C112.438 3.9293 112.919 3.0972 113.688 3.0972L120.923 3.0972C121.692 3.0972 122.174 3.9293 121.79 4.59596L118.172 10.8825Z" fill="white"/>
<path d="M109.624 10.8825C109.239 11.5509 108.275 11.5509 107.89 10.8825L104.273 4.59596C103.889 3.9293 104.37 3.0972 105.139 3.0972L112.375 3.0972C113.144 3.0972 113.625 3.9293 113.241 4.59596L109.624 10.8825Z" fill="white"/>
<path d="M101.075 10.8825C100.691 11.5509 99.7263 11.5509 99.3417 10.8825L95.7241 4.59596C95.3405 3.9293 95.8217 3.0972 96.5908 3.0972L103.826 3.0972C104.595 3.0972 105.076 3.9293 104.693 4.59596L101.075 10.8825Z" fill="white"/>
<path d="M92.5266 10.8825C92.142 11.5509 91.1777 11.5509 90.7931 10.8825L87.1755 4.59596C86.7919 3.9293 87.2731 3.0972 88.0423 3.0972L95.2775 3.0972C96.0467 3.0972 96.5279 3.9293 96.1442 4.59596L92.5266 10.8825Z" fill="white"/>
<path d="M83.978 10.8825C83.5935 11.5509 82.6291 11.5509 82.2446 10.8825L78.6269 4.59596C78.2433 3.9293 78.7245 3.0972 79.4937 3.0972L86.7289 3.0972C87.4981 3.0972 87.9793 3.9293 87.5957 4.59596L83.978 10.8825Z" fill="white"/>
<path d="M75.4295 10.8825C75.0449 11.5509 74.0806 11.5509 73.696 10.8825L70.0784 4.59596C69.6947 3.9293 70.1759 3.0972 70.9451 3.0972L78.1803 3.0972C78.9495 3.0972 79.4307 3.9293 79.0471 4.59596L75.4295 10.8825Z" fill="white"/>
<path d="M66.8809 10.8825C66.4963 11.5509 65.532 11.5509 65.1474 10.8825L61.5298 4.59596C61.1461 3.9293 61.6273 3.0972 62.3965 3.0972L69.6317 3.0972C70.4009 3.0972 70.8821 3.9293 70.4985 4.59596L66.8809 10.8825Z" fill="white"/>
<path d="M58.3323 10.8825C57.9477 11.5509 56.9834 11.5509 56.5988 10.8825L52.9812 4.59596C52.5976 3.9293 53.0788 3.0972 53.8479 3.0972L61.0832 3.0972C61.8523 3.0972 62.3335 3.9293 61.9499 4.59596L58.3323 10.8825Z" fill="white"/>
<path d="M49.7837 10.8825C49.3991 11.5509 48.4348 11.5509 48.0502 10.8825L44.4326 4.59596C44.049 3.9293 44.5302 3.0972 45.2993 3.0972L52.5346 3.0972C53.3037 3.0972 53.785 3.9293 53.4013 4.59596L49.7837 10.8825Z" fill="white"/>
<path d="M41.2351 10.8825C40.8505 11.5509 39.8862 11.5509 39.5016 10.8825L35.884 4.59596C35.5003 3.9293 35.9815 3.0972 36.7507 3.0972L43.9859 3.0972C44.7551 3.0972 45.2363 3.9293 44.8527 4.59596L41.2351 10.8825Z" fill="white"/>
<path d="M32.6865 10.8825C32.3019 11.5509 31.3376 11.5509 30.953 10.8825L27.3354 4.59596C26.9517 3.9293 27.4329 3.0972 28.2021 3.0972L35.4374 3.0972C36.2065 3.0972 36.6877 3.9293 36.3041 4.59596L32.6865 10.8825Z" fill="white"/>
<path d="M24.1379 10.8825C23.7533 11.5509 22.789 11.5509 22.4044 10.8825L18.7868 4.59596C18.4032 3.9293 18.8844 3.0972 19.6535 3.0972L26.8888 3.0972C27.6579 3.0972 28.1391 3.9293 27.7555 4.59596L24.1379 10.8825Z" fill="white"/>
<path d="M15.5893 10.8825C15.2047 11.5509 14.2404 11.5509 13.8558 10.8825L10.2382 4.59596C9.85457 3.9293 10.3358 3.0972 11.1049 3.0972L18.3402 3.0972C19.1093 3.0972 19.5906 3.9293 19.2069 4.59596L15.5893 10.8825Z" fill="white"/>
<path d="M7.04072 10.8825C6.65614 11.5509 5.69182 11.5509 5.30724 10.8825L1.68962 4.59596C1.30599 3.9293 1.78719 3.0972 2.55636 3.0972L9.7916 3.0972C10.5608 3.0972 11.042 3.9293 10.6583 4.59596L7.04072 10.8825Z" fill="white"/>
<path d="M246.401 10.8825C246.017 11.5509 245.052 11.5509 244.668 10.8825L241.05 4.59596C240.666 3.9293 241.148 3.0972 241.917 3.0972L249.152 3.0972C249.921 3.0972 250.402 3.9293 250.019 4.59596L246.401 10.8825Z" fill="white"/>
<path d="M237.853 10.8825C237.468 11.5509 236.504 11.5509 236.119 10.8825L232.502 4.59596C232.118 3.9293 232.599 3.0972 233.368 3.0972L240.604 3.0972C241.373 3.0972 241.854 3.9293 241.47 4.59596L237.853 10.8825Z" fill="white"/>
<path d="M229.304 10.8825C228.919 11.5509 227.955 11.5509 227.571 10.8825L223.953 4.59596C223.569 3.9293 224.05 3.0972 224.82 3.0972L232.055 3.0972C232.824 3.0972 233.305 3.9293 232.922 4.59596L229.304 10.8825Z" fill="white"/>
<path d="M220.755 10.8825C220.371 11.5509 219.407 11.5509 219.022 10.8825L215.404 4.59596C215.021 3.9293 215.502 3.0972 216.271 3.0972L223.506 3.0972C224.275 3.0972 224.757 3.9293 224.373 4.59596L220.755 10.8825Z" fill="white"/>
<path d="M212.207 10.8825C211.822 11.5509 210.858 11.5509 210.473 10.8825L206.856 4.59596C206.472 3.9293 206.953 3.0972 207.723 3.0972L214.958 3.0972C215.727 3.0972 216.208 3.9293 215.825 4.59596L212.207 10.8825Z" fill="white"/>
<path d="M203.658 10.8825C203.274 11.5509 202.309 11.5509 201.925 10.8825L198.307 4.59596C197.924 3.9293 198.405 3.0972 199.174 3.0972L206.409 3.0972C207.178 3.0972 207.66 3.9293 207.276 4.59596L203.658 10.8825Z" fill="white"/>
<path d="M195.11 10.8825C194.725 11.5509 193.761 11.5509 193.376 10.8825L189.759 4.59596C189.375 3.9293 189.856 3.0972 190.625 3.0972L197.861 3.0972C198.63 3.0972 199.111 3.9293 198.727 4.59596L195.11 10.8825Z" fill="white"/>
<path d="M186.561 10.8825C186.177 11.5509 185.212 11.5509 184.828 10.8825L181.21 4.59596C180.826 3.9293 181.308 3.0972 182.077 3.0972L189.312 3.0972C190.081 3.0972 190.562 3.9293 190.179 4.59596L186.561 10.8825Z" fill="white"/>
<path d="M178.012 10.8825C177.628 11.5509 176.664 11.5509 176.279 10.8825L172.661 4.59596C172.278 3.9293 172.759 3.0972 173.528 3.0972L180.763 3.0972C181.533 3.0972 182.014 3.9293 181.63 4.59596L178.012 10.8825Z" fill="white"/>
<path d="M297.693 10.8825C297.308 11.5509 296.344 11.5509 295.959 10.8825L292.342 4.59596C291.958 3.9293 292.439 3.0972 293.208 3.0972L300.444 3.0972C301.213 3.0972 301.694 3.9293 301.31 4.59596L297.693 10.8825Z" fill="white"/>
<path d="M289.144 10.8825C288.76 11.5509 287.795 11.5509 287.411 10.8825L283.793 4.59596C283.409 3.9293 283.891 3.0972 284.66 3.0972L291.895 3.0972C292.664 3.0972 293.145 3.9293 292.762 4.59596L289.144 10.8825Z" fill="white"/>
<path d="M280.596 10.8825C280.211 11.5509 279.247 11.5509 278.862 10.8825L275.244 4.59596C274.861 3.9293 275.342 3.0972 276.111 3.0972L283.346 3.0972C284.116 3.0972 284.597 3.9293 284.213 4.59596L280.596 10.8825Z" fill="white"/>
<path d="M272.047 10.8825C271.662 11.5509 270.698 11.5509 270.313 10.8825L266.696 4.59596C266.312 3.9293 266.793 3.0972 267.563 3.0972L274.798 3.0972C275.567 3.0972 276.048 3.9293 275.665 4.59596L272.047 10.8825Z" fill="white"/>
<path d="M263.498 10.8825C263.114 11.5509 262.149 11.5509 261.765 10.8825L258.147 4.59596C257.764 3.9293 258.245 3.0972 259.014 3.0972L266.249 3.0972C267.018 3.0972 267.5 3.9293 267.116 4.59596L263.498 10.8825Z" fill="white"/>
<path d="M254.95 10.8825C254.565 11.5509 253.601 11.5509 253.216 10.8825L249.599 4.59596C249.215 3.9293 249.696 3.0972 250.465 3.0972L257.701 3.0972C258.47 3.0972 258.951 3.9293 258.567 4.59596L254.95 10.8825Z" fill="white"/>
</svg>