<svg width="116" height="38" viewBox="0 0 116 38" fill="none" xmlns="http://www.w3.org/2000/svg">
<rect x="1" y="1" width="114" height="36" rx="18" stroke="#D9D9D9" stroke-width="2"/>
<path d="M55.5186 26.175C55.5186 26.305 55.4486 26.37 55.3086 26.37H53.9886C53.9386 26.37 53.8886 26.35 53.8386 26.31C53.7986 26.28 53.7786 26.235 53.7786 26.175V12.33C53.7786 12.28 53.7986 12.235 53.8386 12.195C53.8886 12.155 53.9386 12.135 53.9886 12.135H55.3086C55.4486 12.135 55.5186 12.2 55.5186 12.33V26.175ZM45.0786 19.89C45.0086 19.91 44.9336 19.91 44.8536 19.89C44.7836 19.87 44.7386 19.835 44.7186 19.785L44.3886 18.96C44.3686 18.88 44.3786 18.805 44.4186 18.735C44.4586 18.655 44.5086 18.605 44.5686 18.585C45.5786 18.275 46.4836 17.925 47.2836 17.535C48.0836 17.145 48.7536 16.74 49.2936 16.32C49.3836 16.24 49.4086 16.185 49.3686 16.155C49.3386 16.115 49.2786 16.095 49.1886 16.095H45.1686C45.0386 16.095 44.9736 16.03 44.9736 15.9V14.955C44.9736 14.835 45.0386 14.775 45.1686 14.775H50.4036C50.7336 14.775 51.0136 14.84 51.2436 14.97C51.4736 15.1 51.5886 15.26 51.5886 15.45C51.5886 15.58 51.5636 15.71 51.5136 15.84C51.4736 15.97 51.3836 16.135 51.2436 16.335C51.1036 16.555 50.9186 16.77 50.6886 16.98C50.4686 17.19 50.2186 17.405 49.9386 17.625C50.3286 17.785 50.7286 17.94 51.1386 18.09C51.5586 18.23 51.9086 18.34 52.1886 18.42C52.3486 18.46 52.4036 18.565 52.3536 18.735L52.0386 19.5C52.0186 19.56 51.9736 19.61 51.9036 19.65C51.8336 19.68 51.7586 19.685 51.6786 19.665C51.2386 19.555 50.7386 19.39 50.1786 19.17C49.6286 18.95 49.1086 18.72 48.6186 18.48C48.0486 18.8 47.4586 19.08 46.8486 19.32C46.2386 19.56 45.6486 19.75 45.0786 19.89ZM43.6386 20.82C43.6386 20.68 43.7136 20.61 43.8636 20.61C44.5736 20.63 45.3236 20.64 46.1136 20.64C46.9036 20.63 47.6886 20.61 48.4686 20.58C49.2586 20.55 50.0236 20.51 50.7636 20.46C51.5036 20.4 52.1836 20.325 52.8036 20.235C52.8536 20.225 52.9086 20.23 52.9686 20.25C53.0386 20.26 53.0786 20.305 53.0886 20.385L53.1786 21.36C53.1886 21.44 53.1686 21.5 53.1186 21.54C53.0786 21.58 53.0336 21.605 52.9836 21.615C52.4936 21.695 51.9286 21.76 51.2886 21.81C50.6486 21.86 49.9786 21.91 49.2786 21.96V25.665C49.2786 25.735 49.2536 25.79 49.2036 25.83C49.1536 25.88 49.0986 25.905 49.0386 25.905H47.8086C47.7486 25.905 47.6936 25.88 47.6436 25.83C47.5936 25.79 47.5686 25.735 47.5686 25.665V22.035C46.9186 22.055 46.2786 22.07 45.6486 22.08C45.0186 22.09 44.4236 22.09 43.8636 22.08C43.7136 22.08 43.6386 22 43.6386 21.84V20.82ZM50.1936 13.725C50.1936 13.785 50.1686 13.84 50.1186 13.89C50.0786 13.94 50.0186 13.965 49.9386 13.965H46.4136C46.3736 13.965 46.3236 13.945 46.2636 13.905C46.2136 13.865 46.1886 13.81 46.1886 13.74V12.87C46.1886 12.79 46.2136 12.73 46.2636 12.69C46.3236 12.65 46.3736 12.63 46.4136 12.63H49.9386C50.0086 12.63 50.0686 12.66 50.1186 12.72C50.1686 12.77 50.1936 12.825 50.1936 12.885V13.725ZM60.79 19.83C60.75 19.85 60.695 19.855 60.625 19.845C60.565 19.825 60.51 19.775 60.46 19.695L59.92 18.765C59.88 18.685 59.875 18.615 59.905 18.555C59.945 18.485 60 18.44 60.07 18.42C60.82 18.14 61.475 17.84 62.035 17.52C62.605 17.19 63.085 16.815 63.475 16.395C63.865 15.975 64.175 15.495 64.405 14.955C64.635 14.415 64.785 13.79 64.855 13.08C64.865 13.01 64.885 12.94 64.915 12.87C64.955 12.8 65.015 12.77 65.095 12.78L66.4 12.84C66.57 12.85 66.65 12.96 66.64 13.17C66.63 13.43 66.6 13.675 66.55 13.905C66.67 14.385 66.88 14.845 67.18 15.285C67.48 15.725 67.845 16.13 68.275 16.5C68.715 16.86 69.2 17.18 69.73 17.46C70.26 17.74 70.81 17.96 71.38 18.12C71.44 18.14 71.48 18.185 71.5 18.255C71.52 18.315 71.515 18.37 71.485 18.42L70.99 19.38C70.91 19.53 70.79 19.585 70.63 19.545C70.17 19.425 69.705 19.255 69.235 19.035C68.775 18.815 68.33 18.56 67.9 18.27C67.47 17.97 67.075 17.64 66.715 17.28C66.355 16.91 66.05 16.515 65.8 16.095C65.3 16.975 64.62 17.725 63.76 18.345C62.9 18.965 61.91 19.46 60.79 19.83ZM72.535 23.715C72.535 23.765 72.51 23.815 72.46 23.865C72.41 23.915 72.36 23.94 72.31 23.94H59.245C59.185 23.94 59.135 23.92 59.095 23.88C59.055 23.83 59.035 23.775 59.035 23.715V22.725C59.035 22.665 59.055 22.615 59.095 22.575C59.135 22.525 59.185 22.5 59.245 22.5H64.885V19.29C64.885 19.15 64.955 19.08 65.095 19.08H66.4C66.46 19.08 66.51 19.1 66.55 19.14C66.6 19.18 66.625 19.23 66.625 19.29V22.5H72.31C72.36 22.5 72.41 22.525 72.46 22.575C72.51 22.625 72.535 22.675 72.535 22.725V23.715Z" fill="#D4D4D4"/>
</svg>