<svg width="116" height="38" viewBox="0 0 116 38" fill="none" xmlns="http://www.w3.org/2000/svg">
<rect x="1" y="1" width="114" height="36" rx="18" stroke="#FEA655" stroke-width="2"/>
<path d="M44.0611 20.385C44.0611 20.245 44.1311 20.175 44.2711 20.175C44.8411 20.195 45.4311 20.21 46.0411 20.22C46.6511 20.22 47.2661 20.21 47.8861 20.19V19.44C47.1261 19.34 46.5261 19.12 46.0861 18.78C45.6561 18.43 45.4411 18.015 45.4411 17.535C45.4411 17.255 45.5161 16.995 45.6661 16.755C45.8261 16.515 46.0461 16.305 46.3261 16.125C46.6161 15.945 46.9561 15.805 47.3461 15.705C47.7461 15.605 48.1911 15.555 48.6811 15.555C49.1711 15.555 49.6161 15.605 50.0161 15.705C50.4161 15.805 50.7561 15.945 51.0361 16.125C51.3161 16.305 51.5311 16.515 51.6811 16.755C51.8411 16.995 51.9211 17.255 51.9211 17.535C51.9211 17.995 51.7111 18.4 51.2911 18.75C50.8711 19.09 50.3011 19.315 49.5811 19.425V20.13C50.1511 20.11 50.7011 20.08 51.2311 20.04C51.7711 20 52.2911 19.95 52.7911 19.89C52.8411 19.88 52.8911 19.885 52.9411 19.905C53.0011 19.925 53.0361 19.97 53.0461 20.04L53.1211 20.88C53.1311 20.95 53.1161 21.01 53.0761 21.06C53.0361 21.1 52.9911 21.125 52.9411 21.135C52.2511 21.215 51.5211 21.285 50.7511 21.345C49.9911 21.395 49.2311 21.435 48.4711 21.465C47.7211 21.495 46.9861 21.515 46.2661 21.525C45.5461 21.535 44.8811 21.53 44.2711 21.51C44.2111 21.51 44.1611 21.49 44.1211 21.45C44.0811 21.4 44.0611 21.345 44.0611 21.285V20.385ZM57.5311 18.12C57.5311 18.17 57.5061 18.215 57.4561 18.255C57.4161 18.295 57.3711 18.315 57.3211 18.315H55.3561V21.375C55.3561 21.505 55.2911 21.57 55.1611 21.57H53.8261C53.6961 21.57 53.6311 21.505 53.6311 21.375V12.33C53.6311 12.2 53.6961 12.135 53.8261 12.135H55.1611C55.2911 12.135 55.3561 12.2 55.3561 12.33V16.875H57.3211C57.3711 16.875 57.4161 16.895 57.4561 16.935C57.5061 16.965 57.5311 17.005 57.5311 17.055V18.12ZM55.3711 26.175C55.3711 26.225 55.3461 26.27 55.2961 26.31C55.2561 26.36 55.2111 26.385 55.1611 26.385H53.8711C53.8111 26.385 53.7561 26.36 53.7061 26.31C53.6661 26.27 53.6461 26.225 53.6461 26.175V23.88C53.6461 23.78 53.6261 23.715 53.5861 23.685C53.5461 23.655 53.4711 23.64 53.3611 23.64H46.0861C46.0361 23.64 45.9861 23.62 45.9361 23.58C45.8961 23.54 45.8761 23.495 45.8761 23.445V22.44C45.8761 22.38 45.8961 22.335 45.9361 22.305C45.9861 22.275 46.0361 22.26 46.0861 22.26H54.3811C54.7611 22.26 55.0211 22.34 55.1611 22.5C55.3011 22.65 55.3711 22.915 55.3711 23.295V26.175ZM52.5211 14.91C52.5211 14.97 52.4961 15.025 52.4461 15.075C52.4061 15.125 52.3561 15.15 52.2961 15.15H44.8111C44.7611 15.15 44.7111 15.125 44.6611 15.075C44.6111 15.015 44.5861 14.955 44.5861 14.895V14.16C44.5861 14.11 44.6111 14.06 44.6611 14.01C44.7211 13.96 44.7761 13.935 44.8261 13.935H52.2961C52.3561 13.935 52.4061 13.96 52.4461 14.01C52.4961 14.05 52.5211 14.1 52.5211 14.16V14.91ZM50.6611 13.17C50.6611 13.23 50.6361 13.285 50.5861 13.335C50.5461 13.385 50.4861 13.41 50.4061 13.41H46.7161C46.6761 13.41 46.6261 13.39 46.5661 13.35C46.5061 13.31 46.4761 13.255 46.4761 13.185V12.42C46.4761 12.35 46.5061 12.295 46.5661 12.255C46.6261 12.215 46.6761 12.195 46.7161 12.195H50.4061C50.4761 12.195 50.5361 12.22 50.5861 12.27C50.6361 12.32 50.6611 12.375 50.6611 12.435V13.17ZM48.6811 16.725C48.2011 16.725 47.8211 16.805 47.5411 16.965C47.2711 17.125 47.1361 17.315 47.1361 17.535C47.1361 17.745 47.2711 17.935 47.5411 18.105C47.8211 18.265 48.2011 18.345 48.6811 18.345C49.1611 18.345 49.5361 18.265 49.8061 18.105C50.0861 17.935 50.2261 17.745 50.2261 17.535C50.2261 17.315 50.0861 17.125 49.8061 16.965C49.5361 16.805 49.1611 16.725 48.6811 16.725ZM70.0475 25.905C70.0475 25.965 70.0225 26.01 69.9725 26.04C69.9225 26.07 69.8725 26.085 69.8225 26.085H62.0525C61.6025 26.085 61.2975 26.005 61.1375 25.845C60.9875 25.685 60.9125 25.41 60.9125 25.02V21.63C60.9125 21.58 60.9325 21.535 60.9725 21.495C61.0225 21.445 61.0725 21.42 61.1225 21.42H62.4275C62.4875 21.42 62.5375 21.445 62.5775 21.495C62.6275 21.535 62.6525 21.58 62.6525 21.63V24.405C62.6525 24.505 62.6725 24.57 62.7125 24.6C62.7525 24.63 62.8225 24.645 62.9225 24.645H69.8225C69.8725 24.645 69.9225 24.66 69.9725 24.69C70.0225 24.73 70.0475 24.775 70.0475 24.825V25.905ZM69.5825 22.05C69.5825 22.18 69.5175 22.245 69.3875 22.245H68.0525C67.9225 22.245 67.8575 22.175 67.8575 22.035V12.33C67.8575 12.2 67.9225 12.135 68.0525 12.135H69.3875C69.5175 12.135 69.5825 12.2 69.5825 12.33V22.05ZM65.7275 16.365C65.7275 16.865 65.6375 17.335 65.4575 17.775C65.2775 18.215 65.0225 18.6 64.6925 18.93C64.3725 19.25 63.9875 19.505 63.5375 19.695C63.0875 19.885 62.5925 19.98 62.0525 19.98C61.5125 19.98 61.0225 19.885 60.5825 19.695C60.1425 19.505 59.7625 19.25 59.4425 18.93C59.1225 18.6 58.8725 18.215 58.6925 17.775C58.5225 17.335 58.4375 16.865 58.4375 16.365C58.4375 15.885 58.5225 15.43 58.6925 15C58.8725 14.56 59.1225 14.175 59.4425 13.845C59.7625 13.505 60.1425 13.24 60.5825 13.05C61.0225 12.85 61.5125 12.75 62.0525 12.75C62.5925 12.75 63.0875 12.85 63.5375 13.05C63.9875 13.24 64.3725 13.505 64.6925 13.845C65.0225 14.175 65.2775 14.56 65.4575 15C65.6375 15.43 65.7275 15.885 65.7275 16.365ZM64.0175 16.395C64.0175 16.105 63.9675 15.835 63.8675 15.585C63.7775 15.325 63.6425 15.1 63.4625 14.91C63.2925 14.72 63.0875 14.57 62.8475 14.46C62.6075 14.35 62.3425 14.295 62.0525 14.295C61.7625 14.295 61.4975 14.35 61.2575 14.46C61.0275 14.57 60.8275 14.72 60.6575 14.91C60.4875 15.1 60.3525 15.325 60.2525 15.585C60.1625 15.835 60.1175 16.105 60.1175 16.395C60.1175 16.695 60.1625 16.975 60.2525 17.235C60.3525 17.495 60.4875 17.72 60.6575 17.91C60.8275 18.1 61.0275 18.25 61.2575 18.36C61.4975 18.47 61.7625 18.525 62.0525 18.525C62.3425 18.525 62.6075 18.47 62.8475 18.36C63.0875 18.25 63.2925 18.1 63.4625 17.91C63.6425 17.72 63.7775 17.495 63.8675 17.235C63.9675 16.975 64.0175 16.695 64.0175 16.395Z" fill="#FEA655"/>
</svg>