<svg width="42" height="25" viewBox="0 0 42 25" fill="none" xmlns="http://www.w3.org/2000/svg">
<path d="M19.3113 17.474C19.2746 17.474 19.2416 17.4557 19.2123 17.419C19.1829 17.3897 19.1683 17.353 19.1683 17.309V13.723H14.9003C14.8563 13.723 14.8159 13.7083 14.7793 13.679C14.7499 13.6497 14.7353 13.6167 14.7353 13.58V13.206C14.7353 13.162 14.7499 13.129 14.7793 13.107C14.8159 13.0777 14.8563 13.063 14.9003 13.063H24.2503C24.2869 13.063 24.3236 13.0777 24.3603 13.107C24.3969 13.129 24.4153 13.162 24.4153 13.206V13.58C24.4153 13.6167 24.3969 13.6497 24.3603 13.679C24.3236 13.7083 24.2869 13.723 24.2503 13.723H19.9273V17.309C19.9273 17.353 19.9126 17.3897 19.8833 17.419C19.8613 17.4557 19.8283 17.474 19.7843 17.474H19.3113ZM19.9603 7.64C19.9456 7.73533 19.9273 7.827 19.9053 7.915C19.8833 8.003 19.8613 8.08733 19.8393 8.168C19.8613 8.24867 19.8869 8.32567 19.9163 8.399C19.9456 8.465 19.9786 8.531 20.0153 8.597C20.1399 8.839 20.3233 9.08467 20.5653 9.334C20.8073 9.576 21.0859 9.807 21.4013 10.027C21.7166 10.2397 22.0576 10.4303 22.4243 10.599C22.7909 10.7677 23.1686 10.8997 23.5573 10.995C23.6013 11.0097 23.6306 11.039 23.6453 11.083C23.6599 11.127 23.6599 11.1673 23.6453 11.204L23.4693 11.578C23.4473 11.6147 23.4216 11.6403 23.3923 11.655C23.3703 11.6697 23.3226 11.6697 23.2493 11.655C22.8606 11.5523 22.4756 11.413 22.0943 11.237C21.7129 11.0537 21.3573 10.8447 21.0273 10.61C20.6973 10.3753 20.3966 10.1223 20.1253 9.851C19.8613 9.57967 19.6449 9.30467 19.4763 9.026C19.1609 9.598 18.7099 10.115 18.1233 10.577C17.5366 11.0317 16.7996 11.435 15.9123 11.787C15.7949 11.831 15.7216 11.8163 15.6923 11.743L15.4833 11.358C15.4686 11.3213 15.4649 11.281 15.4723 11.237C15.4869 11.193 15.5163 11.1637 15.5603 11.149C16.0369 10.9877 16.4916 10.775 16.9243 10.511C17.3569 10.2397 17.7383 9.94267 18.0683 9.62C18.3983 9.29733 18.6623 8.96 18.8603 8.608C19.0656 8.256 19.1793 7.90767 19.2013 7.563C19.2086 7.475 19.2563 7.431 19.3443 7.431L19.8393 7.486C19.8759 7.49333 19.9089 7.508 19.9383 7.53C19.9676 7.552 19.9749 7.58867 19.9603 7.64ZM35.149 15.571C35.149 15.8863 35.0647 16.1687 34.896 16.418C34.7273 16.6673 34.4963 16.8763 34.203 17.045C33.917 17.221 33.5797 17.353 33.191 17.441C32.8097 17.5363 32.399 17.584 31.959 17.584C31.4823 17.584 31.0497 17.5363 30.661 17.441C30.2723 17.353 29.9387 17.221 29.66 17.045C29.3813 16.8763 29.165 16.6673 29.011 16.418C28.857 16.1687 28.78 15.8863 28.78 15.571C28.78 15.263 28.857 14.988 29.011 14.746C29.165 14.4967 29.3813 14.2877 29.66 14.119C29.9387 13.943 30.2723 13.811 30.661 13.723C31.0497 13.6277 31.4823 13.58 31.959 13.58C32.399 13.58 32.8097 13.6277 33.191 13.723C33.5797 13.811 33.917 13.9393 34.203 14.108C34.4963 14.2767 34.7273 14.4857 34.896 14.735C35.0647 14.977 35.149 15.2557 35.149 15.571ZM34.368 15.604C34.368 15.384 34.302 15.1897 34.17 15.021C34.038 14.8523 33.8583 14.713 33.631 14.603C33.411 14.4857 33.1543 14.3977 32.861 14.339C32.5677 14.273 32.2633 14.24 31.948 14.24C31.596 14.24 31.2733 14.273 30.98 14.339C30.6867 14.3977 30.4337 14.4857 30.221 14.603C30.0157 14.713 29.8543 14.8523 29.737 15.021C29.6197 15.1897 29.561 15.384 29.561 15.604C29.561 15.8167 29.6197 16.0037 29.737 16.165C29.8543 16.3337 30.0157 16.473 30.221 16.583C30.4337 16.693 30.6867 16.7773 30.98 16.836C31.2733 16.8947 31.596 16.924 31.948 16.924C32.2633 16.924 32.5677 16.8947 32.861 16.836C33.1543 16.7773 33.411 16.693 33.631 16.583C33.8583 16.473 34.038 16.3337 34.17 16.165C34.302 16.0037 34.368 15.8167 34.368 15.604ZM31.937 8.839C31.8343 9.13967 31.6877 9.43667 31.497 9.73C31.3137 10.0233 31.0937 10.313 30.837 10.599C31.0863 10.863 31.3943 11.116 31.761 11.358C32.1277 11.5927 32.5273 11.8017 32.96 11.985C33.0187 12.007 33.0517 12.04 33.059 12.084C33.0663 12.1207 33.059 12.1573 33.037 12.194L32.817 12.59C32.795 12.6267 32.762 12.6487 32.718 12.656C32.674 12.656 32.6337 12.6487 32.597 12.634C32.4357 12.5607 32.2597 12.4727 32.069 12.37C31.8857 12.2673 31.695 12.15 31.497 12.018C31.299 11.886 31.101 11.743 30.903 11.589C30.7123 11.435 30.5327 11.2737 30.364 11.105C29.946 11.5157 29.484 11.8897 28.978 12.227C28.4793 12.5643 27.9733 12.8467 27.46 13.074C27.4233 13.0887 27.3867 13.0997 27.35 13.107C27.3133 13.1143 27.284 13.0997 27.262 13.063L27.042 12.678C27.02 12.6413 27.0163 12.6047 27.031 12.568C27.053 12.524 27.0823 12.4947 27.119 12.48C28.065 12.0253 28.8717 11.5047 29.539 10.918C30.2063 10.3313 30.727 9.653 31.101 8.883C31.1523 8.78033 31.1597 8.707 31.123 8.663C31.0863 8.619 31.0167 8.597 30.914 8.597H27.691C27.603 8.597 27.559 8.54933 27.559 8.454V8.069C27.559 7.981 27.603 7.937 27.691 7.937H31.211C31.5923 7.937 31.838 8.00667 31.948 8.146C32.058 8.278 32.0543 8.509 31.937 8.839ZM34.346 9.95V7.552C34.346 7.44933 34.3973 7.398 34.5 7.398H34.951C35.0537 7.398 35.105 7.44933 35.105 7.552V13.338C35.105 13.4407 35.0537 13.492 34.951 13.492H34.5C34.3973 13.492 34.346 13.4407 34.346 13.338V10.61H32.311C32.2157 10.61 32.168 10.566 32.168 10.478V10.082C32.168 9.994 32.2157 9.95 32.311 9.95H34.346Z" fill="black"/>
<rect width="10.1946" height="4.46333" rx="0.3" transform="matrix(-0.707264 -0.70695 -0.707264 0.70695 10.3671 13.2071)" fill="#555555"/>
<path d="M11.7589 18.0184C11.9208 18.081 12.0801 17.9217 12.0176 17.7598L10.3068 13.3341C10.2546 13.1992 10.081 13.1625 9.97872 13.2647L7.26175 15.9805C7.15948 16.0827 7.1962 16.2563 7.33111 16.3084L11.7589 18.0184Z" fill="#555555"/>
</svg>