<svg width="12" height="12" viewBox="0 0 12 12" fill="none" xmlns="http://www.w3.org/2000/svg">
<g id="&#235;&#138;&#144;&#235;&#130;&#140;&#237;&#145;&#156;">
<path id="Ellipse 26" d="M0.4 6C0.4 2.9072 2.90721 0.399999 6 0.399999C9.0928 0.399999 11.6 2.90721 11.6 6C11.6 9.09279 9.09279 11.6 6 11.6C2.90721 11.6 0.4 9.09279 0.4 6Z" stroke="#FEA655" stroke-width="0.8"/>
<path id="!" d="M5.54139 4.45135C5.5477 4.43991 5.55085 4.43133 5.55085 4.42561C5.55085 4.41989 5.554 4.41417 5.5603 4.40845C5.57291 4.39701 5.62019 4.39129 5.70215 4.39129L6.40191 4.39129C6.42713 4.39129 6.43974 4.39701 6.43974 4.40845C6.45865 4.42561 6.46811 4.47423 6.46811 4.55431L6.60049 9.08455C6.6068 9.20467 6.60049 9.27617 6.58158 9.29905C6.56267 9.32193 6.50908 9.33337 6.42082 9.33337L5.57922 9.33337C5.49096 9.33337 5.44052 9.32193 5.42792 9.29905C5.409 9.27617 5.4027 9.20467 5.409 9.08455L5.54139 4.55431L5.54139 4.45135ZM6.00475 2.66671C6.19387 2.66671 6.35148 2.72391 6.47756 2.83831C6.60365 2.95843 6.66669 3.10143 6.66669 3.26731C6.66669 3.43319 6.60365 3.57619 6.47756 3.69631C6.35148 3.81643 6.19387 3.87649 6.00475 3.87649C5.81562 3.87649 5.65802 3.81643 5.53194 3.69631C5.39955 3.57619 5.33335 3.43319 5.33335 3.26731C5.33335 3.10143 5.39955 2.95843 5.53194 2.83831C5.65802 2.72391 5.81562 2.66671 6.00475 2.66671Z" fill="#FEA655"/>
</g>
</svg>