<svg width="10" height="21" viewBox="0 0 10 21" fill="none" xmlns="http://www.w3.org/2000/svg">
<path d="M9.06013 18.566C9.06013 18.794 9.04813 18.914 9.02413 18.926C9.00013 18.938 8.91013 18.866 8.75413 18.71L1.80613 11.726C1.73413 11.654 1.67413 11.594 1.62613 11.546C1.59013 11.498 1.56013 11.456 1.53613 11.42C1.52413 11.372 1.51213 11.318 1.50013 11.258C1.50013 11.198 1.50013 11.12 1.50013 11.024V10.556C1.50013 10.46 1.50013 10.382 1.50013 10.322C1.51213 10.262 1.52413 10.214 1.53613 10.178C1.56013 10.13 1.59013 10.082 1.62613 10.034C1.67413 9.986 1.73413 9.926 1.80613 9.854L8.68213 2.87C8.87413 2.678 8.98213 2.588 9.00613 2.6C9.04213 2.612 9.06013 2.756 9.06013 3.032V3.716C9.06013 3.836 9.05413 3.932 9.04213 4.004C9.04213 4.076 9.03013 4.136 9.00613 4.184C8.99413 4.232 8.96413 4.28 8.91613 4.328C8.88013 4.376 8.82013 4.442 8.73613 4.526L2.83213 10.52C2.70013 10.652 2.62813 10.742 2.61613 10.79C2.61613 10.826 2.67613 10.904 2.79613 11.024C3.26413 11.492 3.75013 11.984 4.25413 12.5C4.75813 13.004 5.26813 13.52 5.78413 14.048C6.30013 14.564 6.81013 15.08 7.31413 15.596C7.83013 16.112 8.32213 16.604 8.79013 17.072C8.92213 17.216 9.00013 17.318 9.02413 17.378C9.04813 17.438 9.06013 17.576 9.06013 17.792V18.566Z" fill="#737373"/>
</svg>
