<svg width="360" height="201" viewBox="0 0 360 201" fill="none" xmlns="http://www.w3.org/2000/svg">
<path d="M6.16898e-05 11.6789C2.18353e-05 3.07339 2 0 7.00006 0H86.5H352C357.5 0 360 4.30275 360 11.6789C360 18.5045 360 174.813 360 198.108C360 199.764 358.657 201 357 201H3.00006C1.3432 201 6.19602e-05 199.764 6.23101e-05 198.108C6.7212e-05 174.898 9.85595e-05 19.6399 6.16898e-05 11.6789Z" fill="white"/>
<path d="M20.75 34.47H33.035V35.505H20.75V34.47ZM26.24 31.56H27.485V34.905H26.24V31.56ZM22.235 24.615H31.52V28.725H23.51V31.44H22.28V27.72H30.29V25.62H22.235V24.615ZM22.28 30.915H31.835V31.935H22.28V30.915ZM35.5838 25.05H44.3138V26.055H35.5838V25.05ZM34.2638 34.155H46.5188V35.19H34.2638V34.155ZM43.6538 25.05H44.8688V26.4C44.8688 28.14 44.8688 30.075 44.3588 33L43.1138 32.88C43.6538 30.105 43.6538 28.08 43.6538 26.4V25.05ZM51.3777 24.645C53.3727 24.645 54.7827 26.49 54.7827 29.37C54.7827 32.265 53.3727 34.11 51.3777 34.11C49.3827 34.11 47.9727 32.265 47.9727 29.37C47.9727 26.49 49.3827 24.645 51.3777 24.645ZM51.3777 25.77C50.0577 25.77 49.1577 27.18 49.1577 29.37C49.1577 31.575 50.0577 33.015 51.3777 33.015C52.6827 33.015 53.5977 31.575 53.5977 29.37C53.5977 27.18 52.6827 25.77 51.3777 25.77ZM56.9427 23.61H58.2027V37.17H56.9427V23.61ZM57.9027 29.025H60.4227V30.075H57.9027V29.025ZM61.2765 29.805H73.5765V30.825H61.2765V29.805ZM66.7815 30.24H67.9965V32.31H66.7815V30.24ZM66.7515 32.94H67.8165V33.36C67.8165 35.43 65.4165 36.795 62.5815 37.125L62.1765 36.165C64.6215 35.91 66.7515 34.8 66.7515 33.36V32.94ZM66.9615 32.94H68.0265V33.36C68.0265 34.845 70.1415 35.925 72.6015 36.165L72.1965 37.125C69.3765 36.795 66.9615 35.475 66.9615 33.36V32.94ZM67.4115 23.805C70.3515 23.805 72.1815 24.72 72.1815 26.295C72.1815 27.87 70.3515 28.785 67.4115 28.785C64.4565 28.785 62.6415 27.87 62.6415 26.295C62.6415 24.72 64.4565 23.805 67.4115 23.805ZM67.4115 24.765C65.2365 24.765 63.9165 25.32 63.9165 26.295C63.9165 27.255 65.2365 27.825 67.4115 27.825C69.5715 27.825 70.9065 27.255 70.9065 26.295C70.9065 25.32 69.5715 24.765 67.4115 24.765Z" fill="black"/>
<path d="M38.98 74.12H42.04V75.155H38.98V74.12ZM41.65 70.61H42.895V78.695H41.65V70.61ZM38.44 79.1C41.23 79.1 42.955 80.045 42.955 81.635C42.955 83.24 41.23 84.155 38.44 84.155C35.635 84.155 33.91 83.24 33.91 81.635C33.91 80.045 35.635 79.1 38.44 79.1ZM38.44 80.075C36.4 80.075 35.155 80.645 35.155 81.635C35.155 82.61 36.4 83.18 38.44 83.18C40.48 83.18 41.725 82.61 41.725 81.635C41.725 80.645 40.48 80.075 38.44 80.075ZM35.2 71.975H36.22V73.07C36.22 75.575 34.69 77.72 32.44 78.56L31.795 77.57C33.805 76.835 35.2 75.02 35.2 73.07V71.975ZM35.44 71.975H36.445V73.07C36.445 74.825 37.765 76.505 39.73 77.195L39.1 78.185C36.895 77.39 35.44 75.35 35.44 73.07V71.975ZM32.17 71.6H39.415V72.62H32.17V71.6ZM54.5338 70.61H55.7788V77.51H54.5338V70.61ZM55.2388 73.52H57.7738V74.555H55.2388V73.52ZM45.8188 71.375H52.0438V76.805H45.8188V71.375ZM50.8288 72.365H47.0338V75.815H50.8288V72.365ZM47.1688 78.155H55.7788V81.485H48.4288V83.51H47.1988V80.54H54.5638V79.145H47.1688V78.155ZM47.1988 82.985H56.2738V83.99H47.1988V82.985ZM62.4624 81.47H74.7474V82.505H62.4624V81.47ZM67.9524 78.56H69.1974V81.905H67.9524V78.56ZM63.9474 71.615H73.2324V75.725H65.2224V78.44H63.9924V74.72H72.0024V72.62H63.9474V71.615ZM63.9924 77.915H73.5474V78.935H63.9924V77.915ZM77.2962 72.05H86.0262V73.055H77.2962V72.05ZM75.9762 81.155H88.2312V82.19H75.9762V81.155ZM85.3662 72.05H86.5812V73.4C86.5812 75.14 86.5812 77.075 86.0712 80L84.8262 79.88C85.3662 77.105 85.3662 75.08 85.3662 73.4V72.05ZM93.09 71.645C95.085 71.645 96.495 73.49 96.495 76.37C96.495 79.265 95.085 81.11 93.09 81.11C91.095 81.11 89.685 79.265 89.685 76.37C89.685 73.49 91.095 71.645 93.09 71.645ZM93.09 72.77C91.77 72.77 90.87 74.18 90.87 76.37C90.87 78.575 91.77 80.015 93.09 80.015C94.395 80.015 95.31 78.575 95.31 76.37C95.31 74.18 94.395 72.77 93.09 72.77ZM98.655 70.61H99.915V84.17H98.655V70.61ZM99.615 76.025H102.135V77.075H99.615V76.025ZM102.989 76.805H115.289V77.825H102.989V76.805ZM108.494 77.24H109.709V79.31H108.494V77.24ZM108.464 79.94H109.529V80.36C109.529 82.43 107.129 83.795 104.294 84.125L103.889 83.165C106.334 82.91 108.464 81.8 108.464 80.36V79.94ZM108.674 79.94H109.739V80.36C109.739 81.845 111.854 82.925 114.314 83.165L113.909 84.125C111.089 83.795 108.674 82.475 108.674 80.36V79.94ZM109.124 70.805C112.064 70.805 113.894 71.72 113.894 73.295C113.894 74.87 112.064 75.785 109.124 75.785C106.169 75.785 104.354 74.87 104.354 73.295C104.354 71.72 106.169 70.805 109.124 70.805ZM109.124 71.765C106.949 71.765 105.629 72.32 105.629 73.295C105.629 74.255 106.949 74.825 109.124 74.825C111.284 74.825 112.619 74.255 112.619 73.295C112.619 72.32 111.284 71.765 109.124 71.765ZM129.382 70.61H130.627V84.17H129.382V70.61ZM130.327 76.175H132.847V77.225H130.327V76.175ZM120.127 72.77H128.122V73.79H120.127V72.77ZM124.177 74.915C126.097 74.915 127.477 76.205 127.477 78.035C127.477 79.865 126.097 81.155 124.177 81.155C122.272 81.155 120.877 79.865 120.877 78.035C120.877 76.205 122.272 74.915 124.177 74.915ZM124.177 75.95C122.947 75.95 122.062 76.805 122.062 78.035C122.062 79.25 122.947 80.12 124.177 80.12C125.407 80.12 126.292 79.25 126.292 78.035C126.292 76.805 125.407 75.95 124.177 75.95ZM123.532 70.775H124.777V73.235H123.532V70.775ZM143.571 70.61H144.816V77.63H143.571V70.61ZM136.056 78.32H144.831V81.575H137.301V83.435H136.086V80.645H143.601V79.295H136.056V78.32ZM136.086 83.03H145.281V84.02H136.086V83.03ZM137.241 71H138.276V72.035C138.276 74.54 136.716 76.67 134.421 77.51L133.806 76.52C135.846 75.8 137.241 74 137.241 72.035V71ZM137.466 71H138.486V72.035C138.486 73.91 139.911 75.605 141.921 76.265L141.306 77.24C139.026 76.46 137.466 74.465 137.466 72.035V71ZM160.815 70.61H162.06V80.63H160.815V70.61ZM157.89 74.795H161.055V75.83H157.89V74.795ZM156.63 71.66H157.935C157.935 75.155 155.475 77.81 151.65 79.085L151.11 78.08C154.425 76.97 156.63 74.84 156.63 72.155V71.66ZM151.785 71.66H157.44V72.68H151.785V71.66ZM153.495 82.85H162.405V83.87H153.495V82.85ZM153.495 79.625H154.74V83.36H153.495V79.625ZM173.594 70.595H174.854V84.17H173.594V70.595ZM174.509 76.1H177.014V77.135H174.509V76.1ZM170.129 72.065H171.344C171.344 75.92 169.574 79.4 165.194 81.605L164.504 80.645C168.254 78.74 170.129 75.845 170.129 72.26V72.065ZM165.134 72.065H170.774V73.085H165.134V72.065ZM180.942 77.585H182.172V81.65H180.942V77.585ZM185.952 77.585H187.197V81.65H185.952V77.585ZM177.942 81.41H190.227V82.445H177.942V81.41ZM184.062 71.465C186.927 71.465 188.982 72.83 188.982 74.96C188.982 77.075 186.927 78.44 184.062 78.44C181.182 78.44 179.127 77.075 179.127 74.96C179.127 72.83 181.182 71.465 184.062 71.465ZM184.062 72.455C181.887 72.455 180.327 73.445 180.327 74.96C180.327 76.46 181.887 77.45 184.062 77.45C186.237 77.45 187.782 76.46 187.782 74.96C187.782 73.445 186.237 72.455 184.062 72.455ZM193.519 79.8626V79.7614C193.526 79.1009 193.592 78.5753 193.716 78.1847C193.844 77.794 194.025 77.478 194.259 77.2365C194.494 76.995 194.776 76.7749 195.106 76.576C195.319 76.4411 195.511 76.2901 195.681 76.1232C195.852 75.9563 195.987 75.7646 196.086 75.5479C196.186 75.3313 196.235 75.0916 196.235 74.8288C196.235 74.5128 196.161 74.2393 196.012 74.0085C195.863 73.7777 195.664 73.6001 195.415 73.4759C195.17 73.348 194.897 73.2841 194.595 73.2841C194.321 73.2841 194.06 73.3409 193.812 73.4545C193.563 73.5682 193.357 73.7457 193.194 73.9872C193.031 74.2251 192.936 74.5323 192.912 74.9087H191.292C191.317 74.2695 191.479 73.7298 191.777 73.2894C192.075 72.8455 192.469 72.5099 192.959 72.2827C193.453 72.0554 193.998 71.9418 194.595 71.9418C195.248 71.9418 195.82 72.0643 196.31 72.3093C196.8 72.5508 197.18 72.8899 197.45 73.3267C197.723 73.7599 197.86 74.266 197.86 74.8448C197.86 75.2425 197.798 75.6012 197.674 75.9208C197.549 76.2369 197.372 76.5192 197.141 76.7678C196.914 77.0163 196.64 77.2365 196.321 77.4283C196.019 77.6165 195.774 77.8118 195.586 78.0142C195.401 78.2166 195.266 78.4563 195.181 78.7333C195.095 79.0103 195.049 79.353 195.042 79.7614V79.8626H193.519ZM194.323 83.1012C194.032 83.1012 193.782 82.9982 193.572 82.7923C193.363 82.5827 193.258 82.3306 193.258 82.0359C193.258 81.7447 193.363 81.4961 193.572 81.2901C193.782 81.0806 194.032 80.9759 194.323 80.9759C194.611 80.9759 194.859 81.0806 195.069 81.2901C195.282 81.4961 195.388 81.7447 195.388 82.0359C195.388 82.2312 195.339 82.4105 195.239 82.5739C195.143 82.7337 195.016 82.8615 194.856 82.9574C194.696 83.0533 194.518 83.1012 194.323 83.1012Z" fill="black"/>
</svg>