<svg width="243" height="86" viewBox="0 0 243 86" fill="none" xmlns="http://www.w3.org/2000/svg">
<rect width="243" height="86" rx="8" fill="white"/>
<path d="M58.6401 15.1H59.6361V23.236H58.6401V15.1ZM59.3241 18.652H61.2441V19.492H59.3241V18.652ZM51.2481 16.408H57.6561V17.212H51.2481V16.408ZM54.4521 17.812C55.9881 17.812 57.0441 18.616 57.0441 19.84C57.0441 21.052 55.9881 21.856 54.4521 21.856C52.9041 21.856 51.8481 21.052 51.8481 19.84C51.8481 18.616 52.9041 17.812 54.4521 17.812ZM54.4521 18.592C53.4681 18.592 52.7961 19.084 52.7961 19.84C52.7961 20.584 53.4681 21.076 54.4521 21.076C55.4241 21.076 56.0961 20.584 56.0961 19.84C56.0961 19.084 55.4241 18.592 54.4521 18.592ZM53.9481 15.088H54.9441V16.828H53.9481V15.088ZM52.8801 24.88H60.1281V25.696H52.8801V24.88ZM52.8801 22.588H53.8761V25.228H52.8801V22.588ZM65.4629 19.336H66.3029C68.4869 19.336 69.7709 19.264 71.2589 18.964L71.3789 19.768C69.8429 20.08 68.5229 20.152 66.3029 20.152H65.4629V19.336ZM65.4629 15.712H70.2509V16.516H66.4469V19.816H65.4629V15.712ZM72.3989 15.088H73.3949V20.548H72.3989V15.088ZM73.1189 17.368H75.0029V18.196H73.1189V17.368ZM66.5069 21.1H73.3949V23.776H67.5149V25.456H66.5309V23.008H72.4229V21.892H66.5069V21.1ZM66.5309 24.988H73.7909V25.792H66.5309V24.988ZM79.9897 15.532H87.2857V19.228H79.9897V15.532ZM86.3017 16.336H80.9617V18.424H86.3017V16.336ZM78.7297 20.584H88.5337V21.388H78.7297V20.584ZM83.1457 19.012H84.1297V20.884H83.1457V19.012ZM79.8217 22.504H87.3217V25.936H86.3257V23.32H79.8217V22.504ZM92.2648 20.968H93.2608V24.064H92.2648V20.968ZM95.6128 20.968H96.5968V24.064H95.6128V20.968ZM89.5528 23.8H99.3808V24.628H89.5528V23.8ZM90.4048 16.084H98.4568V16.9H90.4048V16.084ZM90.4288 20.428H98.4448V21.232H90.4288V20.428ZM92.0968 16.744H93.0928V20.596H92.0968V16.744ZM95.7928 16.744H96.7768V20.596H95.7928V16.744ZM104.56 15.652H111.544V16.468H104.56V15.652ZM103.312 19.648H113.14V20.464H103.312V19.648ZM110.896 15.652H111.868V16.456C111.868 17.38 111.868 18.436 111.508 19.936L110.536 19.888C110.896 18.4 110.896 17.356 110.896 16.456V15.652ZM104.512 21.94H111.904V25.792H104.512V21.94ZM110.932 22.732H105.484V24.988H110.932V22.732ZM116.691 15.772C118.107 15.772 119.151 16.816 119.151 18.34C119.151 19.84 118.107 20.884 116.691 20.884C115.251 20.884 114.219 19.84 114.219 18.34C114.219 16.816 115.251 15.772 116.691 15.772ZM116.691 16.612C115.791 16.612 115.131 17.332 115.131 18.34C115.131 19.336 115.791 20.056 116.691 20.056C117.579 20.056 118.251 19.336 118.251 18.34C118.251 17.332 117.579 16.612 116.691 16.612ZM122.307 15.1H123.255V21.544H122.307V15.1ZM120.555 17.872H122.607V18.7H120.555V17.872ZM119.991 15.292H120.939V21.484H119.991V15.292ZM115.983 22.144H123.255V25.936H122.271V22.96H115.983V22.144ZM129.83 15.268C132.218 15.268 133.646 15.94 133.646 17.152C133.646 18.364 132.218 19.036 129.83 19.036C127.43 19.036 126.014 18.364 126.014 17.152C126.014 15.94 127.43 15.268 129.83 15.268ZM129.83 16.024C128.054 16.024 127.034 16.432 127.034 17.152C127.034 17.872 128.054 18.28 129.83 18.28C131.594 18.28 132.614 17.872 132.614 17.152C132.614 16.432 131.594 16.024 129.83 16.024ZM124.922 19.756H134.726V20.56H124.922V19.756ZM126.11 21.484H133.478V23.932H127.118V25.252H126.134V23.212H132.494V22.252H126.11V21.484ZM126.134 25.036H133.802V25.816H126.134V25.036ZM146.577 15.088H147.585V20.908H146.577V15.088ZM140.589 21.448H141.573V22.768H146.601V21.448H147.585V25.792H140.589V21.448ZM141.573 23.56V24.988H146.601V23.56H141.573ZM141.765 15.604C143.409 15.604 144.585 16.624 144.585 18.1C144.585 19.588 143.409 20.608 141.765 20.608C140.121 20.608 138.933 19.588 138.933 18.1C138.933 16.624 140.121 15.604 141.765 15.604ZM141.765 16.432C140.685 16.432 139.905 17.116 139.905 18.1C139.905 19.084 140.685 19.768 141.765 19.768C142.845 19.768 143.625 19.084 143.625 18.1C143.625 17.116 142.845 16.432 141.765 16.432ZM149.948 20.464H150.728C152.864 20.464 153.92 20.428 155.216 20.2L155.324 21.004C153.98 21.244 152.9 21.28 150.728 21.28H149.948V20.464ZM149.924 15.736H154.604V18.82H150.932V20.956H149.948V18.04H153.62V16.552H149.924V15.736ZM157.424 15.1H158.42V21.76H157.424V15.1ZM155.324 16.696H157.652V17.512H155.324V16.696ZM155.324 18.94H157.652V19.756H155.324V18.94ZM151.16 22.348H158.42V25.96H157.424V23.164H151.16V22.348ZM167.659 15.088H168.655V25.936H167.659V15.088ZM168.415 19.54H170.431V20.38H168.415V19.54ZM160.255 16.816H166.651V17.632H160.255V16.816ZM163.495 18.532C165.031 18.532 166.135 19.564 166.135 21.028C166.135 22.492 165.031 23.524 163.495 23.524C161.971 23.524 160.855 22.492 160.855 21.028C160.855 19.564 161.971 18.532 163.495 18.532ZM163.495 19.36C162.511 19.36 161.803 20.044 161.803 21.028C161.803 22 162.511 22.696 163.495 22.696C164.479 22.696 165.187 22 165.187 21.028C165.187 20.044 164.479 19.36 163.495 19.36ZM162.979 15.22H163.975V17.188H162.979V15.22ZM179.046 15.088H180.042V25.936H179.046V15.088ZM176.514 19.432H179.49V20.26H176.514V19.432ZM175.566 16.252H176.55C176.55 19.348 175.266 22.084 171.666 23.884L171.114 23.104C174.27 21.556 175.566 19.252 175.566 16.42V16.252ZM171.582 16.252H176.094V17.068H171.582V16.252ZM190.001 19.408H192.005V20.248H190.001V19.408ZM189.269 15.076H190.277V25.936H189.269V15.076ZM182.357 16.144H183.353V22.864H182.357V16.144ZM182.357 22.348H183.221C184.829 22.348 186.473 22.24 188.261 21.868L188.381 22.696C186.533 23.08 184.865 23.188 183.221 23.188H182.357V22.348ZM27.0425 35.704H29.1545V36.532H27.0425V35.704ZM27.0425 39.004H29.1545V39.832H27.0425V39.004ZM30.9785 33.088H31.9385V43.936H30.9785V33.088ZM28.8545 33.316H29.7905V43.396H28.8545V33.316ZM25.1585 33.988C26.5625 33.988 27.4745 35.44 27.4745 37.768C27.4745 40.096 26.5625 41.548 25.1585 41.548C23.7545 41.548 22.8545 40.096 22.8545 37.768C22.8545 35.44 23.7545 33.988 25.1585 33.988ZM25.1585 34.912C24.3065 34.912 23.7545 36.016 23.7545 37.768C23.7545 39.52 24.3065 40.624 25.1585 40.624C26.0225 40.624 26.5625 39.52 26.5625 37.768C26.5625 36.016 26.0225 34.912 25.1585 34.912ZM36.1976 33.748H37.0136V35.08C37.0136 37.204 35.8376 38.896 34.0136 39.604L33.4856 38.812C35.1416 38.224 36.1976 36.76 36.1976 35.08V33.748ZM36.3656 33.748H37.1816V35.116C37.1816 36.592 38.2616 37.984 39.8456 38.548L39.3536 39.328C37.5656 38.68 36.3656 37.024 36.3656 35.116V33.748ZM40.9496 33.076H41.9456V41.092H40.9496V33.076ZM41.6336 36.412H43.5536V37.24H41.6336V36.412ZM35.2136 42.88H42.4256V43.696H35.2136V42.88ZM35.2136 40.336H36.2096V43.276H35.2136V40.336ZM51.6724 33.472H52.5484V34.072C52.5484 36.148 50.4364 37.636 48.1804 38.02L47.7844 37.216C49.7644 36.916 51.6724 35.62 51.6724 34.072V33.472ZM51.8524 33.472H52.7164V34.072C52.7164 35.584 54.6484 36.916 56.6044 37.216L56.2084 38.02C53.9764 37.636 51.8524 36.124 51.8524 34.072V33.472ZM51.6724 39.808H52.6564V43.936H51.6724V39.808ZM47.2924 39.196H57.0964V40.024H47.2924V39.196ZM63.8875 35.896H66.3355V36.724H63.8875V35.896ZM66.0235 33.088H67.0195V39.556H66.0235V33.088ZM63.4555 39.88C65.6875 39.88 67.0675 40.636 67.0675 41.908C67.0675 43.192 65.6875 43.924 63.4555 43.924C61.2115 43.924 59.8315 43.192 59.8315 41.908C59.8315 40.636 61.2115 39.88 63.4555 39.88ZM63.4555 40.66C61.8235 40.66 60.8275 41.116 60.8275 41.908C60.8275 42.688 61.8235 43.144 63.4555 43.144C65.0875 43.144 66.0835 42.688 66.0835 41.908C66.0835 41.116 65.0875 40.66 63.4555 40.66ZM60.8635 34.18H61.6795V35.056C61.6795 37.06 60.4555 38.776 58.6555 39.448L58.1395 38.656C59.7475 38.068 60.8635 36.616 60.8635 35.056V34.18ZM61.0555 34.18H61.8595V35.056C61.8595 36.46 62.9155 37.804 64.4875 38.356L63.9835 39.148C62.2195 38.512 61.0555 36.88 61.0555 35.056V34.18ZM58.4395 33.88H64.2355V34.696H58.4395V33.88ZM74.6703 39.556H75.6663V41.32H74.6703V39.556ZM79.2303 33.088H80.2263V43.936H79.2303V33.088ZM79.9023 37.696H81.9063V38.536H79.9023V37.696ZM71.8743 41.872L71.7303 41.044C73.6743 41.044 76.3263 41.02 78.5703 40.696L78.6543 41.44C76.3143 41.86 73.7703 41.872 71.8743 41.872ZM71.9103 34.396H78.4023V35.2H71.9103V34.396ZM75.1623 35.836C76.6743 35.836 77.7183 36.628 77.7183 37.84C77.7183 39.064 76.6743 39.844 75.1623 39.844C73.6503 39.844 72.6183 39.064 72.6183 37.84C72.6183 36.628 73.6503 35.836 75.1623 35.836ZM75.1623 36.604C74.1903 36.604 73.5543 37.096 73.5543 37.84C73.5543 38.584 74.1903 39.076 75.1623 39.076C76.1343 39.076 76.7823 38.584 76.7823 37.84C76.7823 37.096 76.1343 36.604 75.1623 36.604ZM74.6703 33.1H75.6663V34.936H74.6703V33.1ZM87.8694 34.996H90.9054V35.812H87.8694V34.996ZM87.8694 37.312H90.9294V38.14H87.8694V37.312ZM83.1654 34.024H88.1214V39.112H83.1654V34.024ZM87.1374 34.828H84.1374V38.308H87.1374V34.828ZM90.5934 33.1H91.5894V41.02H90.5934V33.1ZM84.6174 42.88H91.8534V43.696H84.6174V42.88ZM84.6174 40.3H85.6134V43.252H84.6174V40.3ZM97.0005 33.868C98.6925 33.868 99.9045 34.912 99.9045 36.424C99.9045 37.948 98.6925 38.992 97.0005 38.992C95.3085 38.992 94.0845 37.948 94.0845 36.424C94.0845 34.912 95.3085 33.868 97.0005 33.868ZM97.0005 34.732C95.8725 34.732 95.0565 35.416 95.0565 36.424C95.0565 37.432 95.8725 38.128 97.0005 38.128C98.1165 38.128 98.9325 37.432 98.9325 36.424C98.9325 35.416 98.1165 34.732 97.0005 34.732ZM101.32 33.076H102.316V43.948H101.32V33.076ZM93.6765 41.572L93.5325 40.744C95.5125 40.744 98.2485 40.732 100.612 40.36L100.696 41.092C98.2605 41.56 95.6085 41.572 93.6765 41.572ZM110.327 34.984H111.143V35.128C111.143 36.724 109.967 37.972 108.131 38.428L107.723 37.636C109.271 37.288 110.327 36.28 110.327 35.128V34.984ZM110.507 34.984H111.323V35.128C111.323 36.22 112.367 37.144 113.903 37.492L113.495 38.272C111.683 37.84 110.507 36.652 110.507 35.128V34.984ZM107.951 34.312H113.699V35.104H107.951V34.312ZM110.315 33.112H111.323V34.84H110.315V33.112ZM110.339 39.292H111.335V43.624H110.339V39.292ZM115.139 33.088H116.123V43.948H115.139V33.088ZM107.351 40.024L107.219 39.184C109.271 39.184 111.995 39.172 114.371 38.836L114.443 39.568C112.007 39.988 109.367 40.024 107.351 40.024ZM118.054 41.704H127.882V42.532H118.054V41.704ZM122.422 39.076H123.406V41.98H122.422V39.076ZM122.398 33.808H123.262V34.648C123.262 36.964 121.042 38.752 118.858 39.208L118.438 38.38C120.346 38.032 122.398 36.436 122.398 34.648V33.808ZM122.578 33.808H123.442V34.648C123.442 36.448 125.506 38.032 127.414 38.38L126.982 39.208C124.798 38.752 122.578 36.964 122.578 34.648V33.808ZM139.757 33.076H140.741V43.948H139.757V33.076ZM136.889 37.108H140.045V37.924H136.889V37.108ZM132.245 33.94H133.229V36.76H136.241V33.94H137.225V41.224H132.245V33.94ZM133.229 37.552V40.396H136.241V37.552H133.229ZM142.612 39.088H152.416V39.904H142.612V39.088ZM143.872 42.88H151.396V43.696H143.872V42.88ZM143.872 40.696H144.868V43.192H143.872V40.696ZM143.908 37.312H151.264V38.092H143.908V37.312ZM143.908 33.484H151.216V34.276H144.892V37.612H143.908V33.484ZM144.604 35.392H150.928V36.148H144.604V35.392ZM158.331 33.268C160.719 33.268 162.147 33.94 162.147 35.152C162.147 36.364 160.719 37.036 158.331 37.036C155.931 37.036 154.515 36.364 154.515 35.152C154.515 33.94 155.931 33.268 158.331 33.268ZM158.331 34.024C156.555 34.024 155.535 34.432 155.535 35.152C155.535 35.872 156.555 36.28 158.331 36.28C160.095 36.28 161.115 35.872 161.115 35.152C161.115 34.432 160.095 34.024 158.331 34.024ZM153.423 37.756H163.227V38.56H153.423V37.756ZM154.611 39.484H161.979V41.932H155.619V43.252H154.635V41.212H160.995V40.252H154.611V39.484ZM154.635 43.036H162.303V43.816H154.635V43.036ZM171.586 37.84H172.57V39.784H171.586V37.84ZM168.514 35.668H175.87V36.484H168.514V35.668ZM167.182 37.42H177.022V38.224H167.182V37.42ZM168.514 33.244H169.486V36.04H168.514V33.244ZM168.406 39.364H175.774V41.872H169.414V43.312H168.43V41.14H174.778V40.144H168.406V39.364ZM168.43 43.036H176.134V43.816H168.43V43.036ZM185.925 33.076H186.921V43.948H185.925V33.076ZM183.861 37.252H186.165V38.068H183.861V37.252ZM178.401 40.516H179.229C181.149 40.516 182.505 40.456 184.101 40.168L184.197 40.996C182.565 41.284 181.185 41.356 179.229 41.356H178.401V40.516ZM178.377 34.096H183.225V37.9H179.385V40.768H178.401V37.084H182.241V34.912H178.377V34.096ZM193.16 34.156H194.024V34.612C194.024 36.556 191.96 37.984 189.776 38.356L189.392 37.564C191.3 37.288 193.16 36.04 193.16 34.612V34.156ZM193.412 34.156H194.264V34.612C194.264 36.04 196.136 37.288 198.032 37.564L197.66 38.356C195.464 37.984 193.412 36.556 193.412 34.612V34.156ZM193.196 39.796H194.18V43.936H193.196V39.796ZM188.816 39.268H198.62V40.084H188.816V39.268ZM189.728 33.76H197.672V34.564H189.728V33.76ZM203.899 36.964H205.975V37.792H203.899V36.964ZM201.871 34.108H202.651V36.172C202.651 38.44 201.703 40.636 200.119 41.608L199.495 40.852C200.983 39.976 201.871 38.032 201.871 36.172V34.108ZM202.063 34.108H202.831V36.136C202.831 37.876 203.647 39.724 205.075 40.588L204.499 41.368C202.939 40.408 202.063 38.248 202.063 36.136V34.108ZM207.883 33.088H208.843V43.936H207.883V33.088ZM205.687 33.316H206.623V43.396H205.687V33.316ZM212.838 38.668H213.822V41.92H212.838V38.668ZM216.846 38.668H217.842V41.92H216.846V38.668ZM210.438 41.728H220.266V42.556H210.438V41.728ZM215.334 33.772C217.626 33.772 219.27 34.864 219.27 36.568C219.27 38.26 217.626 39.352 215.334 39.352C213.03 39.352 211.386 38.26 211.386 36.568C211.386 34.864 213.03 33.772 215.334 33.772ZM215.334 34.564C213.594 34.564 212.346 35.356 212.346 36.568C212.346 37.768 213.594 38.56 215.334 38.56C217.074 38.56 218.31 37.768 218.31 36.568C218.31 35.356 217.074 34.564 215.334 34.564Z" fill="black"/>
</svg>