<svg width="116" height="38" viewBox="0 0 116 38" fill="none" xmlns="http://www.w3.org/2000/svg">
<rect width="116" height="38" rx="19" fill="#D9D9D9"/>
<path d="M50.6053 20.09C50.6053 20.15 50.5803 20.2 50.5303 20.24C50.4903 20.28 50.4453 20.3 50.3953 20.3H48.3703V27.41C48.3703 27.47 48.3453 27.515 48.2953 27.545C48.2553 27.585 48.2103 27.605 48.1603 27.605H46.8403C46.7003 27.605 46.6303 27.54 46.6303 27.41V13.565C46.6303 13.435 46.7003 13.37 46.8403 13.37H48.1603C48.2103 13.37 48.2553 13.39 48.2953 13.43C48.3453 13.47 48.3703 13.515 48.3703 13.565V18.86H50.3953C50.4453 18.86 50.4903 18.88 50.5303 18.92C50.5803 18.95 50.6053 18.99 50.6053 19.04V20.09ZM43.3003 19.175C43.3003 18.715 43.2553 18.28 43.1653 17.87C43.0753 17.46 42.9453 17.105 42.7753 16.805C42.6053 16.495 42.3953 16.25 42.1453 16.07C41.8953 15.89 41.6103 15.8 41.2903 15.8C40.9803 15.8 40.7003 15.89 40.4503 16.07C40.2103 16.25 40.0053 16.495 39.8353 16.805C39.6653 17.105 39.5353 17.46 39.4453 17.87C39.3553 18.28 39.3103 18.715 39.3103 19.175C39.3103 19.625 39.3553 20.055 39.4453 20.465C39.5353 20.875 39.6653 21.235 39.8353 21.545C40.0053 21.855 40.2103 22.105 40.4503 22.295C40.7003 22.475 40.9803 22.565 41.2903 22.565C41.6103 22.565 41.8953 22.475 42.1453 22.295C42.3953 22.105 42.6053 21.855 42.7753 21.545C42.9453 21.235 43.0753 20.875 43.1653 20.465C43.2553 20.055 43.3003 19.625 43.3003 19.175ZM41.2903 24.095C40.7203 24.095 40.2053 23.98 39.7453 23.75C39.2853 23.51 38.8953 23.175 38.5753 22.745C38.2653 22.315 38.0253 21.8 37.8553 21.2C37.6853 20.6 37.6003 19.935 37.6003 19.205C37.6003 18.455 37.6853 17.775 37.8553 17.165C38.0253 16.555 38.2653 16.04 38.5753 15.62C38.8953 15.19 39.2853 14.86 39.7453 14.63C40.2053 14.39 40.7203 14.27 41.2903 14.27C41.8703 14.27 42.3853 14.385 42.8353 14.615C43.2953 14.845 43.6853 15.175 44.0053 15.605C44.3253 16.025 44.5703 16.54 44.7403 17.15C44.9103 17.75 44.9953 18.425 44.9953 19.175C44.9953 19.925 44.9103 20.605 44.7403 21.215C44.5703 21.815 44.3253 22.33 44.0053 22.76C43.6853 23.19 43.2953 23.52 42.8353 23.75C42.3853 23.98 41.8703 24.095 41.2903 24.095ZM62.8068 27.41C62.8068 27.54 62.7418 27.605 62.6118 27.605H61.2768C61.1468 27.605 61.0818 27.54 61.0818 27.41V13.565C61.0818 13.435 61.1468 13.37 61.2768 13.37H62.6118C62.7418 13.37 62.8068 13.435 62.8068 13.565V27.41ZM60.1218 22.535C60.1418 22.605 60.1218 22.67 60.0618 22.73C60.0118 22.79 59.9418 22.83 59.8518 22.85C59.4218 22.97 58.9318 23.07 58.3818 23.15C57.8318 23.23 57.2618 23.295 56.6718 23.345C56.0818 23.385 55.4818 23.415 54.8718 23.435C54.2718 23.445 53.6968 23.435 53.1468 23.405C52.7568 23.385 52.4768 23.275 52.3068 23.075C52.1368 22.875 52.0518 22.605 52.0518 22.265V14.45C52.0518 14.4 52.0718 14.355 52.1118 14.315C52.1618 14.265 52.2118 14.24 52.2618 14.24H53.5518C53.6118 14.24 53.6618 14.265 53.7018 14.315C53.7518 14.355 53.7768 14.4 53.7768 14.45V21.695C53.7768 21.795 53.7968 21.86 53.8368 21.89C53.8768 21.91 53.9518 21.925 54.0618 21.935C54.8618 21.985 55.7318 21.975 56.6718 21.905C57.6118 21.825 58.5968 21.68 59.6268 21.47C59.7268 21.45 59.7968 21.47 59.8368 21.53C59.8868 21.58 59.9218 21.64 59.9418 21.71L60.1218 22.535ZM71.2882 20.69C70.6282 20.69 70.0032 20.62 69.4132 20.48C68.8232 20.34 68.3032 20.135 67.8532 19.865C67.4032 19.585 67.0482 19.24 66.7882 18.83C66.5282 18.42 66.3982 17.95 66.3982 17.42C66.3982 16.9 66.5282 16.44 66.7882 16.04C67.0482 15.63 67.4032 15.285 67.8532 15.005C68.3032 14.725 68.8232 14.515 69.4132 14.375C70.0032 14.235 70.6282 14.165 71.2882 14.165C71.9582 14.165 72.5882 14.235 73.1782 14.375C73.7782 14.515 74.2982 14.725 74.7382 15.005C75.1882 15.285 75.5432 15.63 75.8032 16.04C76.0632 16.44 76.1932 16.9 76.1932 17.42C76.1932 17.95 76.0632 18.42 75.8032 18.83C75.5432 19.24 75.1882 19.585 74.7382 19.865C74.2982 20.135 73.7782 20.34 73.1782 20.48C72.5882 20.62 71.9582 20.69 71.2882 20.69ZM71.3032 15.59C70.9032 15.59 70.5132 15.635 70.1332 15.725C69.7632 15.805 69.4332 15.925 69.1432 16.085C68.8532 16.235 68.6182 16.425 68.4382 16.655C68.2682 16.885 68.1832 17.145 68.1832 17.435C68.1832 17.735 68.2682 18 68.4382 18.23C68.6182 18.46 68.8532 18.655 69.1432 18.815C69.4332 18.965 69.7632 19.085 70.1332 19.175C70.5132 19.255 70.9032 19.295 71.3032 19.295C71.6932 19.295 72.0732 19.255 72.4432 19.175C72.8232 19.085 73.1582 18.965 73.4482 18.815C73.7382 18.655 73.9682 18.46 74.1382 18.23C74.3182 18 74.4082 17.735 74.4082 17.435C74.4082 17.145 74.3182 16.885 74.1382 16.655C73.9682 16.425 73.7382 16.235 73.4482 16.085C73.1582 15.925 72.8232 15.805 72.4432 15.725C72.0732 15.635 71.6932 15.59 71.3032 15.59ZM78.0532 24.95C78.0532 25 78.0282 25.05 77.9782 25.1C77.9282 25.15 77.8782 25.175 77.8282 25.175H64.7632C64.7032 25.175 64.6532 25.15 64.6132 25.1C64.5732 25.05 64.5532 25 64.5532 24.95V23.975C64.5532 23.815 64.6232 23.735 64.7632 23.735H67.7632V21.395C67.7632 21.255 67.8382 21.185 67.9882 21.185H69.2782C69.4282 21.185 69.5032 21.255 69.5032 21.395V23.735H73.0882V21.395C73.0882 21.255 73.1632 21.185 73.3132 21.185H74.6032C74.6632 21.185 74.7132 21.205 74.7532 21.245C74.8032 21.285 74.8282 21.335 74.8282 21.395V23.735H77.8282C77.8782 23.735 77.9282 23.76 77.9782 23.81C78.0282 23.86 78.0532 23.915 78.0532 23.975V24.95Z" fill="white"/>
</svg>