<svg width="10" height="21" viewBox="0 0 10 21" fill="none" xmlns="http://www.w3.org/2000/svg">
<path d="M0.939875 2.434C0.939875 2.206 0.951875 2.086 0.975875 2.074C0.999875 2.062 1.08987 2.134 1.24587 2.29L8.19387 9.274C8.26587 9.346 8.32587 9.406 8.37387 9.454C8.40987 9.502 8.43987 9.544 8.46387 9.58C8.47587 9.628 8.48787 9.682 8.49987 9.742C8.49987 9.802 8.49987 9.88 8.49987 9.976V10.444C8.49987 10.54 8.49987 10.618 8.49987 10.678C8.48787 10.738 8.47587 10.786 8.46387 10.822C8.43987 10.87 8.40987 10.918 8.37387 10.966C8.32587 11.014 8.26587 11.074 8.19387 11.146L1.31787 18.13C1.12587 18.322 1.01787 18.412 0.993875 18.4C0.957875 18.388 0.939875 18.244 0.939875 17.968V17.284C0.939875 17.164 0.945875 17.068 0.957875 16.996C0.957875 16.924 0.969875 16.864 0.993875 16.816C1.00587 16.768 1.03587 16.72 1.08387 16.672C1.11987 16.624 1.17987 16.558 1.26387 16.474L7.16787 10.48C7.29987 10.348 7.37187 10.258 7.38387 10.21C7.38387 10.174 7.32387 10.096 7.20387 9.976C6.73587 9.508 6.24987 9.016 5.74587 8.5C5.24187 7.996 4.73187 7.48 4.21587 6.952C3.69987 6.436 3.18987 5.92 2.68587 5.404C2.16987 4.888 1.67787 4.396 1.20987 3.928C1.07787 3.784 0.999875 3.682 0.975875 3.622C0.951875 3.562 0.939875 3.424 0.939875 3.208V2.434Z" fill="#737373"/>
</svg>
