<svg width="74" height="29" viewBox="0 0 74 29" fill="none" xmlns="http://www.w3.org/2000/svg">
<rect x="0.5" y="0.5" width="73" height="28" rx="1.5" stroke="#FEA655"/>
<path d="M30.9636 17.68C30.9336 17.73 30.8936 17.76 30.8436 17.77C30.8036 17.78 30.7436 17.755 30.6636 17.695C30.4236 17.515 30.1686 17.31 29.8986 17.08C29.6286 16.84 29.3636 16.59 29.1036 16.33C28.8436 16.06 28.5886 15.785 28.3386 15.505C28.0886 15.215 27.8586 14.93 27.6486 14.65C27.1486 15.28 26.5786 15.885 25.9386 16.465C25.2986 17.035 24.5686 17.605 23.7486 18.175C23.6986 18.205 23.6486 18.23 23.5986 18.25C23.5486 18.26 23.5086 18.245 23.4786 18.205L23.1186 17.74C23.0786 17.69 23.0636 17.64 23.0736 17.59C23.0836 17.53 23.1086 17.485 23.1486 17.455C24.7486 16.325 25.9936 15.18 26.8836 14.02C27.7836 12.86 28.4086 11.65 28.7586 10.39C28.7986 10.25 28.7986 10.15 28.7586 10.09C28.7286 10.02 28.6436 9.985 28.5036 9.985H23.9586C23.8386 9.985 23.7786 9.92 23.7786 9.79V9.265C23.7786 9.145 23.8486 9.085 23.9886 9.085H28.9086C29.4286 9.085 29.7586 9.175 29.8986 9.355C30.0386 9.535 30.0386 9.855 29.8986 10.315C29.5086 11.595 28.9586 12.77 28.2486 13.84C28.4786 14.16 28.7236 14.475 28.9836 14.785C29.2436 15.095 29.5036 15.39 29.7636 15.67C30.0236 15.94 30.2836 16.19 30.5436 16.42C30.8036 16.64 31.0486 16.825 31.2786 16.975C31.3286 17.015 31.3536 17.06 31.3536 17.11C31.3536 17.16 31.3386 17.205 31.3086 17.245L30.9636 17.68ZM34.2186 21.58C34.2186 21.72 34.1486 21.79 34.0086 21.79H33.3936C33.2536 21.79 33.1836 21.72 33.1836 21.58V13.75H30.3486C30.2186 13.75 30.1536 13.69 30.1536 13.57V13.03C30.1536 12.91 30.2186 12.85 30.3486 12.85H33.1836V8.17C33.1836 8.03 33.2536 7.96 33.3936 7.96H34.0086C34.1486 7.96 34.2186 8.03 34.2186 8.17V21.58ZM49.48 19.105C49.48 19.535 49.365 19.92 49.135 20.26C48.905 20.6 48.59 20.885 48.19 21.115C47.8 21.355 47.34 21.535 46.81 21.655C46.29 21.785 45.73 21.85 45.13 21.85C44.48 21.85 43.89 21.785 43.36 21.655C42.83 21.535 42.375 21.355 41.995 21.115C41.615 20.885 41.32 20.6 41.11 20.26C40.9 19.92 40.795 19.535 40.795 19.105C40.795 18.685 40.9 18.31 41.11 17.98C41.32 17.64 41.615 17.355 41.995 17.125C42.375 16.885 42.83 16.705 43.36 16.585C43.89 16.455 44.48 16.39 45.13 16.39C45.73 16.39 46.29 16.455 46.81 16.585C47.34 16.705 47.8 16.88 48.19 17.11C48.59 17.34 48.905 17.625 49.135 17.965C49.365 18.295 49.48 18.675 49.48 19.105ZM48.415 19.15C48.415 18.85 48.325 18.585 48.145 18.355C47.965 18.125 47.72 17.935 47.41 17.785C47.11 17.625 46.76 17.505 46.36 17.425C45.96 17.335 45.545 17.29 45.115 17.29C44.635 17.29 44.195 17.335 43.795 17.425C43.395 17.505 43.05 17.625 42.76 17.785C42.48 17.935 42.26 18.125 42.1 18.355C41.94 18.585 41.86 18.85 41.86 19.15C41.86 19.44 41.94 19.7 42.1 19.93C42.26 20.15 42.48 20.335 42.76 20.485C43.05 20.635 43.395 20.75 43.795 20.83C44.195 20.91 44.635 20.95 45.115 20.95C45.545 20.95 45.96 20.91 46.36 20.83C46.76 20.75 47.11 20.635 47.41 20.485C47.72 20.335 47.965 20.15 48.145 19.93C48.325 19.7 48.415 19.44 48.415 19.15ZM45.4 9.85C45.26 10.24 45.07 10.63 44.83 11.02C44.59 11.41 44.305 11.795 43.975 12.175C44.325 12.535 44.755 12.88 45.265 13.21C45.785 13.54 46.34 13.835 46.93 14.095C46.99 14.125 47.015 14.165 47.005 14.215C47.005 14.265 46.995 14.315 46.975 14.365L46.675 14.89C46.645 14.94 46.61 14.975 46.57 14.995C46.53 15.015 46.465 15 46.375 14.95C46.155 14.85 45.915 14.73 45.655 14.59C45.405 14.45 45.145 14.29 44.875 14.11C44.605 13.93 44.335 13.735 44.065 13.525C43.805 13.315 43.56 13.095 43.33 12.865C42.75 13.435 42.11 13.96 41.41 14.44C40.72 14.91 40.015 15.305 39.295 15.625C39.245 15.645 39.195 15.66 39.145 15.67C39.095 15.68 39.055 15.66 39.025 15.61L38.725 15.085C38.695 15.035 38.69 14.985 38.71 14.935C38.74 14.875 38.78 14.835 38.83 14.815C40.12 14.195 41.22 13.485 42.13 12.685C43.04 11.885 43.75 10.96 44.26 9.91C44.33 9.77 44.34 9.67 44.29 9.61C44.24 9.55 44.145 9.52 44.005 9.52H39.61C39.49 9.52 39.43 9.455 39.43 9.325V8.8C39.43 8.68 39.5 8.62 39.64 8.62H44.41C44.93 8.62 45.265 8.715 45.415 8.905C45.565 9.085 45.56 9.4 45.4 9.85ZM49.3 16.015C49.3 16.155 49.23 16.225 49.09 16.225H48.475C48.335 16.225 48.265 16.155 48.265 16.015V8.17C48.265 8.03 48.335 7.96 48.475 7.96H49.09C49.23 7.96 49.3 8.03 49.3 8.17V11.755H51.37C51.43 11.755 51.48 11.775 51.52 11.815C51.57 11.845 51.595 11.89 51.595 11.95V12.46C51.595 12.51 51.57 12.555 51.52 12.595C51.48 12.635 51.43 12.655 51.37 12.655H49.3V16.015Z" fill="#FEA655"/>
</svg>
