<svg width="54" height="22" viewBox="0 0 54 22" fill="none" xmlns="http://www.w3.org/2000/svg">
<rect x="0.5" y="0.5" width="53" height="21" rx="1.5" stroke="#FEA655"/>
<path d="M20.8113 16.09C20.7746 16.09 20.7416 16.0716 20.7123 16.035C20.6829 16.0056 20.6683 15.969 20.6683 15.925V12.339H16.4003C16.3563 12.339 16.3159 12.3243 16.2793 12.295C16.2499 12.2656 16.2353 12.2326 16.2353 12.196V11.822C16.2353 11.778 16.2499 11.745 16.2793 11.723C16.3159 11.6936 16.3563 11.679 16.4003 11.679H25.7503C25.7869 11.679 25.8236 11.6936 25.8603 11.723C25.8969 11.745 25.9153 11.778 25.9153 11.822V12.196C25.9153 12.2326 25.8969 12.2656 25.8603 12.295C25.8236 12.3243 25.7869 12.339 25.7503 12.339H21.4273V15.925C21.4273 15.969 21.4126 16.0056 21.3833 16.035C21.3613 16.0716 21.3283 16.09 21.2843 16.09H20.8113ZM21.4603 6.25598C21.4456 6.35131 21.4273 6.44298 21.4053 6.53098C21.3833 6.61898 21.3613 6.70331 21.3393 6.78398C21.3613 6.86464 21.3869 6.94164 21.4163 7.01498C21.4456 7.08098 21.4786 7.14698 21.5153 7.21298C21.6399 7.45498 21.8233 7.70064 22.0653 7.94998C22.3073 8.19198 22.5859 8.42298 22.9013 8.64298C23.2166 8.85564 23.5576 9.04631 23.9243 9.21498C24.2909 9.38364 24.6686 9.51564 25.0573 9.61098C25.1013 9.62564 25.1306 9.65498 25.1453 9.69898C25.1599 9.74298 25.1599 9.78331 25.1453 9.81998L24.9693 10.194C24.9473 10.2306 24.9216 10.2563 24.8923 10.271C24.8703 10.2856 24.8226 10.2856 24.7493 10.271C24.3606 10.1683 23.9756 10.029 23.5943 9.85298C23.2129 9.66964 22.8573 9.46064 22.5273 9.22598C22.1973 8.99131 21.8966 8.73831 21.6253 8.46698C21.3613 8.19564 21.1449 7.92064 20.9763 7.64198C20.6609 8.21398 20.2099 8.73098 19.6233 9.19298C19.0366 9.64764 18.2996 10.051 17.4123 10.403C17.2949 10.447 17.2216 10.4323 17.1923 10.359L16.9833 9.97398C16.9686 9.93731 16.9649 9.89698 16.9723 9.85298C16.9869 9.80898 17.0163 9.77964 17.0603 9.76498C17.5369 9.60364 17.9916 9.39098 18.4243 9.12698C18.8569 8.85564 19.2383 8.55864 19.5683 8.23598C19.8983 7.91331 20.1623 7.57598 20.3603 7.22398C20.5656 6.87198 20.6793 6.52364 20.7013 6.17898C20.7086 6.09098 20.7563 6.04698 20.8443 6.04698L21.3393 6.10198C21.3759 6.10931 21.4089 6.12398 21.4383 6.14598C21.4676 6.16798 21.4749 6.20464 21.4603 6.25598ZM36.649 14.187C36.649 14.5023 36.5647 14.7846 36.396 15.034C36.2273 15.2833 35.9963 15.4923 35.703 15.661C35.417 15.837 35.0797 15.969 34.691 16.057C34.3097 16.1523 33.899 16.2 33.459 16.2C32.9823 16.2 32.5497 16.1523 32.161 16.057C31.7723 15.969 31.4387 15.837 31.16 15.661C30.8813 15.4923 30.665 15.2833 30.511 15.034C30.357 14.7846 30.28 14.5023 30.28 14.187C30.28 13.879 30.357 13.604 30.511 13.362C30.665 13.1126 30.8813 12.9036 31.16 12.735C31.4387 12.559 31.7723 12.427 32.161 12.339C32.5497 12.2436 32.9823 12.196 33.459 12.196C33.899 12.196 34.3097 12.2436 34.691 12.339C35.0797 12.427 35.417 12.5553 35.703 12.724C35.9963 12.8926 36.2273 13.1016 36.396 13.351C36.5647 13.593 36.649 13.8716 36.649 14.187ZM35.868 14.22C35.868 14 35.802 13.8056 35.67 13.637C35.538 13.4683 35.3583 13.329 35.131 13.219C34.911 13.1016 34.6543 13.0136 34.361 12.955C34.0677 12.889 33.7633 12.856 33.448 12.856C33.096 12.856 32.7733 12.889 32.48 12.955C32.1867 13.0136 31.9337 13.1016 31.721 13.219C31.5157 13.329 31.3543 13.4683 31.237 13.637C31.1197 13.8056 31.061 14 31.061 14.22C31.061 14.4326 31.1197 14.6233 31.237 14.792C31.3543 14.9533 31.5157 15.089 31.721 15.199C31.9337 15.309 32.1867 15.3933 32.48 15.452C32.7733 15.5106 33.096 15.54 33.448 15.54C33.7633 15.54 34.0677 15.5106 34.361 15.452C34.6543 15.3933 34.911 15.309 35.131 15.199C35.3583 15.089 35.538 14.9533 35.67 14.792C35.802 14.6233 35.868 14.4326 35.868 14.22ZM33.437 7.45498C33.3343 7.75564 33.1877 8.05264 32.997 8.34598C32.8137 8.63931 32.5937 8.92898 32.337 9.21498C32.5863 9.47898 32.8943 9.73198 33.261 9.97398C33.6277 10.2086 34.0273 10.4176 34.46 10.601C34.5187 10.623 34.5517 10.656 34.559 10.7C34.5663 10.7366 34.559 10.7733 34.537 10.81L34.317 11.206C34.295 11.2426 34.262 11.2646 34.218 11.272C34.174 11.272 34.1337 11.2646 34.097 11.25C33.9357 11.1766 33.7597 11.0886 33.569 10.986C33.3857 10.8833 33.195 10.766 32.997 10.634C32.799 10.502 32.601 10.359 32.403 10.205C32.2123 10.051 32.0327 9.88964 31.864 9.72098C31.446 10.1316 30.984 10.5056 30.478 10.843C29.9793 11.1803 29.4733 11.4626 28.96 11.69C28.9233 11.7046 28.8867 11.7156 28.85 11.723C28.8133 11.7303 28.784 11.7156 28.762 11.679L28.542 11.294C28.52 11.2573 28.5163 11.2206 28.531 11.184C28.553 11.14 28.5823 11.1106 28.619 11.096C29.565 10.6413 30.3717 10.1206 31.039 9.53398C31.7063 8.94731 32.227 8.26898 32.601 7.49898C32.6523 7.39631 32.6597 7.32298 32.623 7.27898C32.5863 7.23498 32.5167 7.21298 32.414 7.21298H29.191C29.103 7.21298 29.059 7.16531 29.059 7.06998V6.68498C29.059 6.59698 29.103 6.55298 29.191 6.55298H32.711C33.0923 6.55298 33.338 6.62264 33.448 6.76198C33.558 6.89398 33.5543 7.12498 33.437 7.45498ZM35.846 8.56598V6.16798C35.846 6.06531 35.8973 6.01398 36 6.01398H36.451C36.5537 6.01398 36.605 6.06531 36.605 6.16798V11.954C36.605 12.0566 36.5537 12.108 36.451 12.108H36C35.8973 12.108 35.846 12.0566 35.846 11.954V9.22598H33.811C33.7157 9.22598 33.668 9.18198 33.668 9.09398V8.69798C33.668 8.60998 33.7157 8.56598 33.811 8.56598H35.846Z" fill="#FEA655"/>
</svg>