<svg width="20" height="20" viewBox="0 0 20 20" fill="none" xmlns="http://www.w3.org/2000/svg">
<circle cx="10" cy="10" r="10" fill="#BCBCBC"/>
<path d="M10.7131 10.762V13.505C10.7131 13.609 10.6611 13.661 10.5571 13.661H9.49107C9.38707 13.661 9.33507 13.609 9.33507 13.505V10.762H6.57907C6.53574 10.762 6.49674 10.749 6.46207 10.723C6.43607 10.6883 6.42307 10.6493 6.42307 10.606V9.592C6.42307 9.54867 6.43607 9.514 6.46207 9.488C6.49674 9.45333 6.53574 9.436 6.57907 9.436H9.33507V6.706C9.33507 6.66267 9.34807 6.628 9.37407 6.602C9.40874 6.56733 9.44774 6.55 9.49107 6.55H10.5571C10.6004 6.55 10.6351 6.56733 10.6611 6.602C10.6957 6.628 10.7131 6.66267 10.7131 6.706V9.436H13.4561C13.5601 9.436 13.6121 9.488 13.6121 9.592V10.606C13.6121 10.71 13.5601 10.762 13.4561 10.762H10.7131Z" fill="white"/>
</svg>
