<svg width="57" height="19" viewBox="0 0 57 19" fill="none" xmlns="http://www.w3.org/2000/svg">
<rect x="0.5" y="0.5" width="56" height="18" rx="9" stroke="#FEA655"/>
<path d="M19.295 10.08C19.295 9.98667 19.3417 9.94 19.435 9.94C19.815 9.95333 20.2084 9.96333 20.615 9.97C21.0217 9.97 21.4317 9.96333 21.845 9.95V9.45C21.3384 9.38333 20.9384 9.23667 20.645 9.01C20.3584 8.77667 20.215 8.5 20.215 8.18C20.215 7.99333 20.265 7.82 20.365 7.66C20.4717 7.5 20.6184 7.36 20.805 7.24C20.9984 7.12 21.225 7.02667 21.485 6.96C21.7517 6.89333 22.0484 6.86 22.375 6.86C22.7017 6.86 22.9984 6.89333 23.265 6.96C23.5317 7.02667 23.7584 7.12 23.945 7.24C24.1317 7.36 24.275 7.5 24.375 7.66C24.4817 7.82 24.535 7.99333 24.535 8.18C24.535 8.48667 24.395 8.75667 24.115 8.99C23.835 9.21667 23.455 9.36667 22.975 9.44V9.91C23.355 9.89667 23.7217 9.87667 24.075 9.85C24.435 9.82333 24.7817 9.79 25.115 9.75C25.1484 9.74333 25.1817 9.74667 25.215 9.76C25.255 9.77333 25.2784 9.80333 25.285 9.85L25.335 10.41C25.3417 10.4567 25.3317 10.4967 25.305 10.53C25.2784 10.5567 25.2484 10.5733 25.215 10.58C24.755 10.6333 24.2684 10.68 23.755 10.72C23.2484 10.7533 22.7417 10.78 22.235 10.8C21.735 10.82 21.245 10.8333 20.765 10.84C20.285 10.8467 19.8417 10.8433 19.435 10.83C19.395 10.83 19.3617 10.8167 19.335 10.79C19.3084 10.7567 19.295 10.72 19.295 10.68V10.08ZM28.275 8.57C28.275 8.60333 28.2584 8.63333 28.225 8.66C28.1984 8.68667 28.1684 8.7 28.135 8.7H26.825V10.74C26.825 10.8267 26.7817 10.87 26.695 10.87H25.805C25.7184 10.87 25.675 10.8267 25.675 10.74V4.71C25.675 4.62333 25.7184 4.58 25.805 4.58H26.695C26.7817 4.58 26.825 4.62333 26.825 4.71V7.74H28.135C28.1684 7.74 28.1984 7.75333 28.225 7.78C28.2584 7.8 28.275 7.82667 28.275 7.86V8.57ZM26.835 13.94C26.835 13.9733 26.8184 14.0033 26.785 14.03C26.7584 14.0633 26.7284 14.08 26.695 14.08H25.835C25.795 14.08 25.7584 14.0633 25.725 14.03C25.6984 14.0033 25.685 13.9733 25.685 13.94V12.41C25.685 12.3433 25.6717 12.3 25.645 12.28C25.6184 12.26 25.5684 12.25 25.495 12.25H20.645C20.6117 12.25 20.5784 12.2367 20.545 12.21C20.5184 12.1833 20.505 12.1533 20.505 12.12V11.45C20.505 11.41 20.5184 11.38 20.545 11.36C20.5784 11.34 20.6117 11.33 20.645 11.33H26.175C26.4284 11.33 26.6017 11.3833 26.695 11.49C26.7884 11.59 26.835 11.7667 26.835 12.02V13.94ZM24.935 6.43C24.935 6.47 24.9184 6.50667 24.885 6.54C24.8584 6.57333 24.825 6.59 24.785 6.59H19.795C19.7617 6.59 19.7284 6.57333 19.695 6.54C19.6617 6.5 19.645 6.46 19.645 6.42V5.93C19.645 5.89667 19.6617 5.86333 19.695 5.83C19.735 5.79667 19.7717 5.78 19.805 5.78H24.785C24.825 5.78 24.8584 5.79667 24.885 5.83C24.9184 5.85667 24.935 5.89 24.935 5.93V6.43ZM23.695 5.27C23.695 5.31 23.6784 5.34667 23.645 5.38C23.6184 5.41333 23.5784 5.43 23.525 5.43H21.065C21.0384 5.43 21.005 5.41667 20.965 5.39C20.925 5.36333 20.905 5.32667 20.905 5.28V4.77C20.905 4.72333 20.925 4.68667 20.965 4.66C21.005 4.63333 21.0384 4.62 21.065 4.62H23.525C23.5717 4.62 23.6117 4.63667 23.645 4.67C23.6784 4.70333 23.695 4.74 23.695 4.78V5.27ZM22.375 7.64C22.055 7.64 21.8017 7.69333 21.615 7.8C21.435 7.90667 21.345 8.03333 21.345 8.18C21.345 8.32 21.435 8.44667 21.615 8.56C21.8017 8.66667 22.055 8.72 22.375 8.72C22.695 8.72 22.945 8.66667 23.125 8.56C23.3117 8.44667 23.405 8.32 23.405 8.18C23.405 8.03333 23.3117 7.90667 23.125 7.8C22.945 7.69333 22.695 7.64 22.375 7.64ZM36.6193 13.76C36.6193 13.8 36.6027 13.83 36.5693 13.85C36.536 13.87 36.5027 13.88 36.4693 13.88H31.2893C30.9893 13.88 30.786 13.8267 30.6793 13.72C30.5793 13.6133 30.5293 13.43 30.5293 13.17V10.91C30.5293 10.8767 30.5427 10.8467 30.5693 10.82C30.6027 10.7867 30.636 10.77 30.6693 10.77H31.5393C31.5793 10.77 31.6127 10.7867 31.6393 10.82C31.6727 10.8467 31.6893 10.8767 31.6893 10.91V12.76C31.6893 12.8267 31.7027 12.87 31.7293 12.89C31.756 12.91 31.8027 12.92 31.8693 12.92H36.4693C36.5027 12.92 36.536 12.9333 36.5693 12.96C36.6027 12.98 36.6193 13.0067 36.6193 13.04V13.76ZM36.3093 11.19C36.3093 11.2767 36.266 11.32 36.1793 11.32H35.2893C35.2027 11.32 35.1593 11.2733 35.1593 11.18V4.71C35.1593 4.62333 35.2027 4.58 35.2893 4.58H36.1793C36.266 4.58 36.3093 4.62333 36.3093 4.71V11.19ZM33.7393 7.4C33.7393 7.73333 33.6793 8.04667 33.5593 8.34C33.4393 8.63333 33.2693 8.89 33.0493 9.11C32.836 9.32333 32.5793 9.49333 32.2793 9.62C31.9793 9.74667 31.6493 9.81 31.2893 9.81C30.9293 9.81 30.6027 9.74667 30.3093 9.62C30.016 9.49333 29.7627 9.32333 29.5493 9.11C29.336 8.89 29.1693 8.63333 29.0493 8.34C28.936 8.04667 28.8793 7.73333 28.8793 7.4C28.8793 7.08 28.936 6.77667 29.0493 6.49C29.1693 6.19667 29.336 5.94 29.5493 5.72C29.7627 5.49333 30.016 5.31667 30.3093 5.19C30.6027 5.05667 30.9293 4.99 31.2893 4.99C31.6493 4.99 31.9793 5.05667 32.2793 5.19C32.5793 5.31667 32.836 5.49333 33.0493 5.72C33.2693 5.94 33.4393 6.19667 33.5593 6.49C33.6793 6.77667 33.7393 7.08 33.7393 7.4ZM32.5993 7.42C32.5993 7.22667 32.566 7.04667 32.4993 6.88C32.4393 6.70667 32.3493 6.55667 32.2293 6.43C32.116 6.30333 31.9793 6.20333 31.8193 6.13C31.6593 6.05667 31.4827 6.02 31.2893 6.02C31.096 6.02 30.9193 6.05667 30.7593 6.13C30.606 6.20333 30.4727 6.30333 30.3593 6.43C30.246 6.55667 30.156 6.70667 30.0893 6.88C30.0293 7.04667 29.9993 7.22667 29.9993 7.42C29.9993 7.62 30.0293 7.80667 30.0893 7.98C30.156 8.15333 30.246 8.30333 30.3593 8.43C30.4727 8.55667 30.606 8.65667 30.7593 8.73C30.9193 8.80333 31.096 8.84 31.2893 8.84C31.4827 8.84 31.6593 8.80333 31.8193 8.73C31.9793 8.65667 32.116 8.55667 32.2293 8.43C32.3493 8.30333 32.4393 8.15333 32.4993 7.98C32.566 7.80667 32.5993 7.62 32.5993 7.42Z" fill="#FEA655"/>
</svg>