<svg width="303" height="13" viewBox="0 0 303 13" fill="none" xmlns="http://www.w3.org/2000/svg">
<path d="M169.464 1.81185C169.079 1.14354 168.115 1.14354 167.73 1.81185L164.113 8.09843C163.729 8.7651 164.21 9.5972 164.98 9.5972L172.215 9.5972C172.984 9.5972 173.465 8.7651 173.082 8.09844L169.464 1.81185Z" fill="white"/>
<path d="M160.915 1.81185C160.531 1.14354 159.566 1.14354 159.182 1.81185L155.564 8.09843C155.181 8.7651 155.662 9.5972 156.431 9.5972L163.666 9.5972C164.435 9.5972 164.917 8.7651 164.533 8.09844L160.915 1.81185Z" fill="white"/>
<path d="M152.367 1.81185C151.982 1.14354 151.018 1.14354 150.633 1.81185L147.016 8.09843C146.632 8.7651 147.113 9.5972 147.882 9.5972L155.118 9.5972C155.887 9.5972 156.368 8.7651 155.984 8.09844L152.367 1.81185Z" fill="white"/>
<path d="M143.818 1.81185C143.434 1.14354 142.469 1.14354 142.085 1.81185L138.467 8.09843C138.083 8.7651 138.565 9.5972 139.334 9.5972L146.569 9.5972C147.338 9.5972 147.819 8.7651 147.436 8.09844L143.818 1.81185Z" fill="white"/>
<path d="M135.27 1.81185C134.885 1.14354 133.921 1.14354 133.536 1.81185L129.919 8.09843C129.535 8.7651 130.016 9.5972 130.785 9.5972L138.02 9.5972C138.79 9.5972 139.271 8.7651 138.887 8.09844L135.27 1.81185Z" fill="white"/>
<path d="M126.721 1.81185C126.336 1.14354 125.372 1.14354 124.987 1.81185L121.37 8.09843C120.986 8.7651 121.467 9.5972 122.237 9.5972L129.472 9.5972C130.241 9.5972 130.722 8.7651 130.339 8.09844L126.721 1.81185Z" fill="white"/>
<path d="M118.172 1.81185C117.788 1.14354 116.823 1.14354 116.439 1.81185L112.821 8.09843C112.438 8.7651 112.919 9.5972 113.688 9.5972L120.923 9.5972C121.692 9.5972 122.174 8.7651 121.79 8.09844L118.172 1.81185Z" fill="white"/>
<path d="M109.624 1.81185C109.239 1.14354 108.275 1.14354 107.89 1.81185L104.273 8.09843C103.889 8.7651 104.37 9.5972 105.139 9.5972L112.375 9.5972C113.144 9.5972 113.625 8.7651 113.241 8.09844L109.624 1.81185Z" fill="white"/>
<path d="M101.075 1.81185C100.691 1.14354 99.7263 1.14354 99.3417 1.81185L95.7241 8.09843C95.3405 8.7651 95.8217 9.5972 96.5908 9.5972L103.826 9.5972C104.595 9.5972 105.076 8.7651 104.693 8.09844L101.075 1.81185Z" fill="white"/>
<path d="M92.5266 1.81185C92.142 1.14354 91.1777 1.14354 90.7931 1.81185L87.1755 8.09843C86.7919 8.7651 87.2731 9.5972 88.0423 9.5972L95.2775 9.5972C96.0467 9.5972 96.5279 8.7651 96.1442 8.09844L92.5266 1.81185Z" fill="white"/>
<path d="M83.978 1.81185C83.5935 1.14354 82.6291 1.14354 82.2446 1.81185L78.6269 8.09843C78.2433 8.7651 78.7245 9.5972 79.4937 9.5972L86.7289 9.5972C87.4981 9.5972 87.9793 8.7651 87.5957 8.09844L83.978 1.81185Z" fill="white"/>
<path d="M75.4295 1.81185C75.0449 1.14354 74.0806 1.14354 73.696 1.81185L70.0784 8.09843C69.6947 8.7651 70.1759 9.5972 70.9451 9.5972L78.1803 9.5972C78.9495 9.5972 79.4307 8.7651 79.0471 8.09844L75.4295 1.81185Z" fill="white"/>
<path d="M66.8809 1.81185C66.4963 1.14354 65.532 1.14354 65.1474 1.81185L61.5298 8.09843C61.1461 8.7651 61.6273 9.5972 62.3965 9.5972L69.6317 9.5972C70.4009 9.5972 70.8821 8.7651 70.4985 8.09844L66.8809 1.81185Z" fill="white"/>
<path d="M58.3323 1.81185C57.9477 1.14354 56.9834 1.14354 56.5988 1.81185L52.9812 8.09843C52.5976 8.7651 53.0788 9.5972 53.8479 9.5972L61.0832 9.5972C61.8523 9.5972 62.3335 8.7651 61.9499 8.09844L58.3323 1.81185Z" fill="white"/>
<path d="M49.7837 1.81185C49.3991 1.14354 48.4348 1.14354 48.0502 1.81185L44.4326 8.09843C44.049 8.7651 44.5302 9.5972 45.2993 9.5972L52.5346 9.5972C53.3037 9.5972 53.785 8.7651 53.4013 8.09844L49.7837 1.81185Z" fill="white"/>
<path d="M41.2351 1.81185C40.8505 1.14354 39.8862 1.14354 39.5016 1.81185L35.884 8.09843C35.5003 8.7651 35.9815 9.5972 36.7507 9.5972L43.9859 9.5972C44.7551 9.5972 45.2363 8.7651 44.8527 8.09844L41.2351 1.81185Z" fill="white"/>
<path d="M32.6865 1.81185C32.3019 1.14354 31.3376 1.14354 30.953 1.81185L27.3354 8.09843C26.9517 8.7651 27.4329 9.5972 28.2021 9.5972L35.4374 9.5972C36.2065 9.5972 36.6877 8.7651 36.3041 8.09844L32.6865 1.81185Z" fill="white"/>
<path d="M24.1379 1.81185C23.7533 1.14354 22.789 1.14354 22.4044 1.81185L18.7868 8.09843C18.4032 8.7651 18.8844 9.5972 19.6535 9.5972L26.8888 9.5972C27.6579 9.5972 28.1391 8.7651 27.7555 8.09844L24.1379 1.81185Z" fill="white"/>
<path d="M15.5893 1.81185C15.2047 1.14354 14.2404 1.14354 13.8558 1.81185L10.2382 8.09843C9.85457 8.7651 10.3358 9.5972 11.1049 9.5972L18.3402 9.5972C19.1093 9.5972 19.5906 8.7651 19.2069 8.09844L15.5893 1.81185Z" fill="white"/>
<path d="M7.04072 1.81185C6.65614 1.14354 5.69182 1.14354 5.30724 1.81185L1.68962 8.09843C1.30599 8.7651 1.78719 9.5972 2.55636 9.5972L9.7916 9.5972C10.5608 9.5972 11.042 8.7651 10.6583 8.09844L7.04072 1.81185Z" fill="white"/>
<path d="M246.401 1.81185C246.017 1.14354 245.052 1.14354 244.668 1.81185L241.05 8.09843C240.666 8.7651 241.148 9.5972 241.917 9.5972L249.152 9.5972C249.921 9.5972 250.402 8.7651 250.019 8.09844L246.401 1.81185Z" fill="white"/>
<path d="M237.853 1.81185C237.468 1.14354 236.504 1.14354 236.119 1.81185L232.502 8.09843C232.118 8.7651 232.599 9.5972 233.368 9.5972L240.604 9.5972C241.373 9.5972 241.854 8.7651 241.47 8.09844L237.853 1.81185Z" fill="white"/>
<path d="M229.304 1.81185C228.919 1.14354 227.955 1.14354 227.571 1.81185L223.953 8.09843C223.569 8.7651 224.05 9.5972 224.82 9.5972L232.055 9.5972C232.824 9.5972 233.305 8.7651 232.922 8.09844L229.304 1.81185Z" fill="white"/>
<path d="M220.755 1.81185C220.371 1.14354 219.407 1.14354 219.022 1.81185L215.404 8.09843C215.021 8.7651 215.502 9.5972 216.271 9.5972L223.506 9.5972C224.275 9.5972 224.757 8.7651 224.373 8.09844L220.755 1.81185Z" fill="white"/>
<path d="M212.207 1.81185C211.822 1.14354 210.858 1.14354 210.473 1.81185L206.856 8.09843C206.472 8.7651 206.953 9.5972 207.723 9.5972L214.958 9.5972C215.727 9.5972 216.208 8.7651 215.825 8.09844L212.207 1.81185Z" fill="white"/>
<path d="M203.658 1.81185C203.274 1.14354 202.309 1.14354 201.925 1.81185L198.307 8.09843C197.924 8.7651 198.405 9.5972 199.174 9.5972L206.409 9.5972C207.178 9.5972 207.66 8.7651 207.276 8.09844L203.658 1.81185Z" fill="white"/>
<path d="M195.11 1.81185C194.725 1.14354 193.761 1.14354 193.376 1.81185L189.759 8.09843C189.375 8.7651 189.856 9.5972 190.625 9.5972L197.861 9.5972C198.63 9.5972 199.111 8.7651 198.727 8.09844L195.11 1.81185Z" fill="white"/>
<path d="M186.561 1.81185C186.177 1.14354 185.212 1.14354 184.828 1.81185L181.21 8.09843C180.826 8.7651 181.308 9.5972 182.077 9.5972L189.312 9.5972C190.081 9.5972 190.562 8.7651 190.179 8.09844L186.561 1.81185Z" fill="white"/>
<path d="M178.012 1.81185C177.628 1.14354 176.664 1.14354 176.279 1.81185L172.661 8.09843C172.278 8.7651 172.759 9.5972 173.528 9.5972L180.763 9.5972C181.533 9.5972 182.014 8.7651 181.63 8.09844L178.012 1.81185Z" fill="white"/>
<path d="M297.693 1.81185C297.308 1.14354 296.344 1.14354 295.959 1.81185L292.342 8.09843C291.958 8.7651 292.439 9.5972 293.208 9.5972L300.444 9.5972C301.213 9.5972 301.694 8.7651 301.31 8.09844L297.693 1.81185Z" fill="white"/>
<path d="M289.144 1.81185C288.76 1.14354 287.795 1.14354 287.411 1.81185L283.793 8.09843C283.409 8.7651 283.891 9.5972 284.66 9.5972L291.895 9.5972C292.664 9.5972 293.145 8.7651 292.762 8.09844L289.144 1.81185Z" fill="white"/>
<path d="M280.596 1.81185C280.211 1.14354 279.247 1.14354 278.862 1.81185L275.244 8.09843C274.861 8.7651 275.342 9.5972 276.111 9.5972L283.346 9.5972C284.116 9.5972 284.597 8.7651 284.213 8.09844L280.596 1.81185Z" fill="white"/>
<path d="M272.047 1.81185C271.662 1.14354 270.698 1.14354 270.313 1.81185L266.696 8.09843C266.312 8.7651 266.793 9.5972 267.563 9.5972L274.798 9.5972C275.567 9.5972 276.048 8.7651 275.665 8.09844L272.047 1.81185Z" fill="white"/>
<path d="M263.498 1.81185C263.114 1.14354 262.149 1.14354 261.765 1.81185L258.147 8.09843C257.764 8.7651 258.245 9.5972 259.014 9.5972L266.249 9.5972C267.018 9.5972 267.5 8.7651 267.116 8.09844L263.498 1.81185Z" fill="white"/>
<path d="M254.95 1.81185C254.565 1.14354 253.601 1.14354 253.216 1.81185L249.599 8.09843C249.215 8.7651 249.696 9.5972 250.465 9.5972L257.701 9.5972C258.47 9.5972 258.951 8.7651 258.567 8.09844L254.95 1.81185Z" fill="white"/>
</svg>