<svg width="360" height="201" viewBox="0 0 360 201" fill="none" xmlns="http://www.w3.org/2000/svg">
<g clip-path="url(#clip0_569_2988)">
<path d="M5.95635e-10 11.6789C-3.98538e-05 3.07339 1.99994 0 7 0H86.5H352C357.5 0 360 4.30275 360 11.6789C360 18.5045 360 174.813 360 198.108C360 199.764 358.657 201 357 201H3C1.34314 201 2.71001e-07 199.764 6.20934e-07 198.108C5.52288e-06 174.898 3.68704e-05 19.6399 5.95635e-10 11.6789Z" fill="white"/>
<path d="M21.365 29.22H22.4C25.16 29.22 26.66 29.175 28.49 28.86L28.595 29.865C26.735 30.165 25.19 30.21 22.4 30.21H21.365V29.22ZM21.365 24.285H27.56V25.275H22.595V29.82H21.365V24.285ZM22.205 26.715H27.305V27.69H22.205V26.715ZM30.02 23.61H31.265V30.675H30.02V23.61ZM30.725 26.565H33.26V27.585H30.725V26.565ZM22.655 31.35H31.265V34.545H23.915V36.525H22.685V33.63H30.05V32.325H22.655V31.35ZM22.685 36.045H31.76V37.02H22.685V36.045ZM38.1488 30.78H39.3938V33.66H38.1488V30.78ZM35.3438 30.12H42.3938V31.14H35.3438V30.12ZM35.3438 24.84H42.3488V25.845H36.5888V30.51H35.3438V24.84ZM36.2288 27.45H42.0638V28.44H36.2288V27.45ZM44.0588 23.595H45.3038V37.185H44.0588V23.595ZM34.5038 34.455L34.3238 33.405C36.7988 33.405 40.2188 33.39 43.1738 32.94L43.2788 33.87C40.2338 34.44 36.9188 34.455 34.5038 34.455ZM56.9577 23.61H58.2027V37.17H56.9577V23.61ZM57.9027 29.175H60.4227V30.225H57.9027V29.175ZM47.7027 25.77H55.6977V26.79H47.7027V25.77ZM51.7527 27.915C53.6727 27.915 55.0527 29.205 55.0527 31.035C55.0527 32.865 53.6727 34.155 51.7527 34.155C49.8477 34.155 48.4527 32.865 48.4527 31.035C48.4527 29.205 49.8477 27.915 51.7527 27.915ZM51.7527 28.95C50.5227 28.95 49.6377 29.805 49.6377 31.035C49.6377 32.25 50.5227 33.12 51.7527 33.12C52.9827 33.12 53.8677 32.25 53.8677 31.035C53.8677 29.805 52.9827 28.95 51.7527 28.95ZM51.1077 23.775H52.3527V26.235H51.1077V23.775ZM71.1615 23.61H72.4065V37.17H71.1615V23.61ZM67.1865 25.065H68.4165C68.4165 28.995 66.6465 32.43 62.1165 34.65L61.4565 33.645C65.3715 31.755 67.1865 28.875 67.1865 25.275V25.065ZM62.0715 25.065H67.7265V26.085H62.0715V25.065Z" fill="black"/>
<path d="M38.98 74.12H42.04V75.155H38.98V74.12ZM41.65 70.61H42.895V78.695H41.65V70.61ZM38.44 79.1C41.23 79.1 42.955 80.045 42.955 81.635C42.955 83.24 41.23 84.155 38.44 84.155C35.635 84.155 33.91 83.24 33.91 81.635C33.91 80.045 35.635 79.1 38.44 79.1ZM38.44 80.075C36.4 80.075 35.155 80.645 35.155 81.635C35.155 82.61 36.4 83.18 38.44 83.18C40.48 83.18 41.725 82.61 41.725 81.635C41.725 80.645 40.48 80.075 38.44 80.075ZM35.2 71.975H36.22V73.07C36.22 75.575 34.69 77.72 32.44 78.56L31.795 77.57C33.805 76.835 35.2 75.02 35.2 73.07V71.975ZM35.44 71.975H36.445V73.07C36.445 74.825 37.765 76.505 39.73 77.195L39.1 78.185C36.895 77.39 35.44 75.35 35.44 73.07V71.975ZM32.17 71.6H39.415V72.62H32.17V71.6ZM54.5338 70.61H55.7788V77.51H54.5338V70.61ZM55.2388 73.52H57.7738V74.555H55.2388V73.52ZM45.8188 71.375H52.0438V76.805H45.8188V71.375ZM50.8288 72.365H47.0338V75.815H50.8288V72.365ZM47.1688 78.155H55.7788V81.485H48.4288V83.51H47.1988V80.54H54.5638V79.145H47.1688V78.155ZM47.1988 82.985H56.2738V83.99H47.1988V82.985ZM63.0774 76.22H64.1124C66.8724 76.22 68.3724 76.175 70.2024 75.86L70.3074 76.865C68.4474 77.165 66.9024 77.21 64.1124 77.21H63.0774V76.22ZM63.0774 71.285H69.2724V72.275H64.3074V76.82H63.0774V71.285ZM63.9174 73.715H69.0174V74.69H63.9174V73.715ZM71.7324 70.61H72.9774V77.675H71.7324V70.61ZM72.4374 73.565H74.9724V74.585H72.4374V73.565ZM64.3674 78.35H72.9774V81.545H65.6274V83.525H64.3974V80.63H71.7624V79.325H64.3674V78.35ZM64.3974 83.045H73.4724V84.02H64.3974V83.045ZM79.8612 77.78H81.1062V80.66H79.8612V77.78ZM77.0562 77.12H84.1062V78.14H77.0562V77.12ZM77.0562 71.84H84.0612V72.845H78.3012V77.51H77.0562V71.84ZM77.9412 74.45H83.7762V75.44H77.9412V74.45ZM85.7712 70.595H87.0162V84.185H85.7712V70.595ZM76.2162 81.455L76.0362 80.405C78.5112 80.405 81.9312 80.39 84.8862 79.94L84.9912 80.87C81.9462 81.44 78.6312 81.455 76.2162 81.455ZM102.355 70.61H103.6V84.17H102.355V70.61ZM103.3 76.175H105.82V77.225H103.3V76.175ZM93.0998 72.77H101.095V73.79H93.0998V72.77ZM97.1498 74.915C99.0698 74.915 100.45 76.205 100.45 78.035C100.45 79.865 99.0698 81.155 97.1498 81.155C95.2448 81.155 93.8498 79.865 93.8498 78.035C93.8498 76.205 95.2448 74.915 97.1498 74.915ZM97.1498 75.95C95.9198 75.95 95.0348 76.805 95.0348 78.035C95.0348 79.25 95.9198 80.12 97.1498 80.12C98.3798 80.12 99.2648 79.25 99.2648 78.035C99.2648 76.805 98.3798 75.95 97.1498 75.95ZM96.5048 70.775H97.7498V73.235H96.5048V70.775ZM116.544 70.61H117.789V77.63H116.544V70.61ZM109.029 78.32H117.804V81.575H110.274V83.435H109.059V80.645H116.574V79.295H109.029V78.32ZM109.059 83.03H118.254V84.02H109.059V83.03ZM110.214 71H111.249V72.035C111.249 74.54 109.689 76.67 107.394 77.51L106.779 76.52C108.819 75.8 110.214 74 110.214 72.035V71ZM110.439 71H111.459V72.035C111.459 73.91 112.884 75.605 114.894 76.265L114.279 77.24C111.999 76.46 110.439 74.465 110.439 72.035V71ZM133.787 70.61H135.032V80.63H133.787V70.61ZM130.862 74.795H134.027V75.83H130.862V74.795ZM129.602 71.66H130.907C130.907 75.155 128.447 77.81 124.622 79.085L124.082 78.08C127.397 76.97 129.602 74.84 129.602 72.155V71.66ZM124.757 71.66H130.412V72.68H124.757V71.66ZM126.467 82.85H135.377V83.87H126.467V82.85ZM126.467 79.625H127.712V83.36H126.467V79.625ZM146.566 70.595H147.826V84.17H146.566V70.595ZM147.481 76.1H149.986V77.135H147.481V76.1ZM143.101 72.065H144.316C144.316 75.92 142.546 79.4 138.166 81.605L137.476 80.645C141.226 78.74 143.101 75.845 143.101 72.26V72.065ZM138.106 72.065H143.746V73.085H138.106V72.065ZM153.915 77.585H155.145V81.65H153.915V77.585ZM158.925 77.585H160.17V81.65H158.925V77.585ZM150.915 81.41H163.2V82.445H150.915V81.41ZM157.035 71.465C159.9 71.465 161.955 72.83 161.955 74.96C161.955 77.075 159.9 78.44 157.035 78.44C154.155 78.44 152.1 77.075 152.1 74.96C152.1 72.83 154.155 71.465 157.035 71.465ZM157.035 72.455C154.86 72.455 153.3 73.445 153.3 74.96C153.3 76.46 154.86 77.45 157.035 77.45C159.21 77.45 160.755 76.46 160.755 74.96C160.755 73.445 159.21 72.455 157.035 72.455ZM166.491 79.8626V79.7614C166.498 79.1009 166.564 78.5753 166.688 78.1847C166.816 77.794 166.997 77.478 167.232 77.2365C167.466 76.995 167.748 76.7749 168.078 76.576C168.292 76.4411 168.483 76.2901 168.654 76.1232C168.824 75.9563 168.959 75.7646 169.059 75.5479C169.158 75.3313 169.208 75.0916 169.208 74.8288C169.208 74.5128 169.133 74.2393 168.984 74.0085C168.835 73.7777 168.636 73.6001 168.387 73.4759C168.142 73.348 167.869 73.2841 167.567 73.2841C167.294 73.2841 167.033 73.3409 166.784 73.4545C166.536 73.5682 166.33 73.7457 166.166 73.9872C166.003 74.2251 165.909 74.5323 165.884 74.9087H164.265C164.289 74.2695 164.451 73.7298 164.749 73.2894C165.048 72.8455 165.442 72.5099 165.932 72.2827C166.425 72.0554 166.971 71.9418 167.567 71.9418C168.221 71.9418 168.792 72.0643 169.282 72.3093C169.772 72.5508 170.152 72.8899 170.422 73.3267C170.696 73.7599 170.832 74.266 170.832 74.8448C170.832 75.2425 170.77 75.6012 170.646 75.9208C170.522 76.2369 170.344 76.5192 170.113 76.7678C169.886 77.0163 169.613 77.2365 169.293 77.4283C168.991 77.6165 168.746 77.8118 168.558 78.0142C168.373 78.2166 168.238 78.4563 168.153 78.7333C168.068 79.0103 168.022 79.353 168.015 79.7614V79.8626H166.491ZM167.295 83.1012C167.004 83.1012 166.754 82.9982 166.544 82.7923C166.335 82.5827 166.23 82.3306 166.23 82.0359C166.23 81.7447 166.335 81.4961 166.544 81.2901C166.754 81.0806 167.004 80.9759 167.295 80.9759C167.583 80.9759 167.832 81.0806 168.041 81.2901C168.254 81.4961 168.361 81.7447 168.361 82.0359C168.361 82.2312 168.311 82.4105 168.212 82.5739C168.116 82.7337 167.988 82.8615 167.828 82.9574C167.668 83.0533 167.491 83.1012 167.295 83.1012Z" fill="black"/>
</g>
<defs>
<clipPath id="clip0_569_2988">
<rect width="360" height="201" fill="white"/>
</clipPath>
</defs>
</svg>