<svg width="116" height="38" viewBox="0 0 116 38" fill="none" xmlns="http://www.w3.org/2000/svg">
<rect width="116" height="38" rx="19" fill="#FFA95A"/>
<path d="M60.5418 26.915C60.5418 27.055 60.4768 27.125 60.3468 27.125H59.1168C58.9768 27.125 58.9068 27.055 58.9068 26.915V19.295H55.9818C55.9318 19.295 55.8818 19.275 55.8318 19.235C55.7918 19.195 55.7718 19.15 55.7718 19.1V18.05C55.7718 18 55.7918 17.96 55.8318 17.93C55.8818 17.89 55.9318 17.87 55.9818 17.87H58.9068V13.82C58.9068 13.69 58.9768 13.625 59.1168 13.625H60.3468C60.4768 13.625 60.5418 13.69 60.5418 13.82V26.915ZM63.4518 27.44C63.4518 27.57 63.3818 27.635 63.2418 27.635H61.9518C61.9018 27.635 61.8518 27.615 61.8018 27.575C61.7618 27.535 61.7418 27.49 61.7418 27.44V13.565C61.7418 13.515 61.7618 13.47 61.8018 13.43C61.8518 13.39 61.9068 13.37 61.9668 13.37H63.2418C63.3818 13.37 63.4518 13.435 63.4518 13.565V27.44ZM58.1418 22.805C58.1518 22.875 58.1318 22.93 58.0818 22.97C58.0318 23 57.9718 23.025 57.9018 23.045C57.5418 23.145 57.1468 23.23 56.7168 23.3C56.2968 23.36 55.8618 23.41 55.4118 23.45C54.9718 23.48 54.5318 23.5 54.0918 23.51C53.6518 23.51 53.2368 23.5 52.8468 23.48C52.4868 23.46 52.2118 23.355 52.0218 23.165C51.8318 22.965 51.7368 22.695 51.7368 22.355V14.6C51.7368 14.55 51.7568 14.505 51.7968 14.465C51.8468 14.415 51.9018 14.39 51.9618 14.39H53.2068C53.2668 14.39 53.3218 14.415 53.3718 14.465C53.4218 14.505 53.4468 14.55 53.4468 14.6V21.785C53.4468 21.935 53.5368 22.015 53.7168 22.025C53.9568 22.045 54.2418 22.055 54.5718 22.055C54.9018 22.045 55.2468 22.03 55.6068 22.01C55.9668 21.98 56.3268 21.94 56.6868 21.89C57.0568 21.84 57.3918 21.78 57.6918 21.71C57.7418 21.7 57.7968 21.705 57.8568 21.725C57.9268 21.745 57.9718 21.79 57.9918 21.86L58.1418 22.805Z" fill="white"/>
</svg>