<svg width="56" height="19" viewBox="0 0 56 19" fill="none" xmlns="http://www.w3.org/2000/svg">
<path d="M12.9 8.04H15.44V0.759999C15.44 0.573333 15.5333 0.479999 15.72 0.479999H16.48C16.6667 0.479999 16.76 0.573333 16.76 0.759999V18.64C16.76 18.8267 16.6667 18.92 16.48 18.92H15.72C15.5333 18.92 15.44 18.8267 15.44 18.64V9.24H12.9V17.88C12.9 18.0667 12.8067 18.16 12.62 18.16H11.86C11.6733 18.16 11.58 18.0667 11.58 17.88V1.1C11.58 0.913333 11.6733 0.82 11.86 0.82H12.62C12.8067 0.82 12.9 0.913333 12.9 1.1V8.04ZM9.68 11.24C9.68 11.7867 9.58667 12.2933 9.4 12.76C9.21333 13.2267 8.95333 13.6333 8.62 13.98C8.28667 14.3267 7.88 14.6 7.4 14.8C6.93333 15 6.41333 15.1 5.84 15.1C5.25333 15.1 4.72 15 4.24 14.8C3.77333 14.6 3.37333 14.3267 3.04 13.98C2.70667 13.62 2.44667 13.2067 2.26 12.74C2.08667 12.2733 2 11.7733 2 11.24C2 10.7067 2.08667 10.2067 2.26 9.74C2.44667 9.26 2.70667 8.85333 3.04 8.52C3.37333 8.17333 3.77333 7.9 4.24 7.7C4.72 7.5 5.25333 7.4 5.84 7.4C6.41333 7.4 6.93333 7.5 7.4 7.7C7.88 7.9 8.28667 8.17333 8.62 8.52C8.95333 8.86667 9.21333 9.27333 9.4 9.74C9.58667 10.2067 9.68 10.7067 9.68 11.24ZM8.36 11.24C8.36 10.8667 8.3 10.52 8.18 10.2C8.07333 9.88 7.90667 9.6 7.68 9.36C7.46667 9.12 7.20667 8.93333 6.9 8.8C6.59333 8.65333 6.24 8.58 5.84 8.58C5.04 8.58 4.41333 8.83333 3.96 9.34C3.52 9.84667 3.3 10.48 3.3 11.24C3.3 11.6133 3.35333 11.9667 3.46 12.3C3.58 12.62 3.74667 12.9 3.96 13.14C4.18667 13.38 4.45333 13.5733 4.76 13.72C5.08 13.8533 5.44 13.92 5.84 13.92C6.24 13.92 6.59333 13.8533 6.9 13.72C7.20667 13.5733 7.46667 13.38 7.68 13.14C7.90667 12.9 8.07333 12.62 8.18 12.3C8.3 11.9667 8.36 11.6133 8.36 11.24ZM10.48 5.74C10.48 5.91333 10.38 6 10.18 6H1.14C1.07333 6 1.00667 5.97333 0.94 5.92C0.886667 5.86667 0.86 5.8 0.86 5.72V5.08C0.86 5 0.886667 4.93333 0.94 4.88C1.00667 4.82667 1.07333 4.8 1.14 4.8H10.18C10.38 4.8 10.48 4.88667 10.48 5.06V5.74ZM8.36 2.54C8.36 2.72667 8.26 2.82 8.06 2.82H3.38C3.31333 2.82 3.24667 2.8 3.18 2.76C3.12667 2.70667 3.1 2.64 3.1 2.56V1.88C3.1 1.8 3.12667 1.73333 3.18 1.68C3.23333 1.62667 3.29333 1.6 3.36 1.6H8.06C8.26 1.6 8.36 1.69333 8.36 1.88V2.54ZM26.0486 1.4C26.0486 1.92 26.0153 2.42667 25.9486 2.92C25.8953 3.41333 25.8153 3.89333 25.7086 4.36C25.8686 4.90667 26.0953 5.45333 26.3886 6C26.6953 6.53333 27.0486 7.04667 27.4486 7.54C27.8619 8.02 28.3086 8.46 28.7886 8.86C29.2686 9.24667 29.7619 9.56 30.2686 9.8C30.3486 9.84 30.3819 9.89333 30.3686 9.96C30.3686 10.0267 30.3553 10.0933 30.3286 10.16L29.9286 10.82C29.8886 10.8867 29.8419 10.9333 29.7886 10.96C29.7353 10.9867 29.6486 10.9667 29.5286 10.9C29.1419 10.7133 28.7353 10.4467 28.3086 10.1C27.8953 9.75333 27.4819 9.37333 27.0686 8.96C26.6686 8.53333 26.2953 8.08667 25.9486 7.62C25.6019 7.14 25.3153 6.68 25.0886 6.24C24.6353 7.32 24.0353 8.30667 23.2886 9.2C22.5553 10.08 21.6886 10.8467 20.6886 11.5C20.6219 11.54 20.5486 11.5667 20.4686 11.58C20.3886 11.5933 20.3219 11.5667 20.2686 11.5L19.7686 10.84C19.7286 10.7867 19.7219 10.72 19.7486 10.64C19.7753 10.56 19.8219 10.5 19.8886 10.46C20.6086 10.02 21.2619 9.47333 21.8486 8.82C22.4486 8.16667 22.9553 7.44667 23.3686 6.66C23.7953 5.87333 24.1153 5.03333 24.3286 4.14C24.5553 3.23333 24.6619 2.31333 24.6486 1.38C24.6486 1.16667 24.7286 1.06 24.8886 1.06L25.8286 1.12C25.9753 1.12 26.0486 1.21333 26.0486 1.4ZM34.2086 13.52C34.2086 13.7067 34.1153 13.8 33.9286 13.8H33.1086C32.9219 13.8 32.8286 13.7067 32.8286 13.52V0.759999C32.8286 0.573333 32.9219 0.479999 33.1086 0.479999H33.9286C34.1153 0.479999 34.2086 0.573333 34.2086 0.759999V6.4H36.9686C37.0486 6.4 37.1153 6.42667 37.1686 6.48C37.2353 6.52 37.2686 6.58 37.2686 6.66V7.34C37.2686 7.40667 37.2353 7.46667 37.1686 7.52C37.1153 7.57333 37.0486 7.6 36.9686 7.6H34.2086V13.52ZM35.1086 18.32C35.1086 18.4 35.0753 18.46 35.0086 18.5C34.9419 18.54 34.8753 18.56 34.8086 18.56H24.5086C23.8819 18.56 23.4686 18.44 23.2686 18.2C23.0819 17.9733 22.9886 17.5867 22.9886 17.04V13.12C22.9886 12.9333 23.0819 12.84 23.2686 12.84H24.0886C24.2753 12.84 24.3686 12.9333 24.3686 13.12V16.94C24.3686 17.1267 24.3953 17.24 24.4486 17.28C24.5153 17.3333 24.6419 17.36 24.8286 17.36H34.8086C34.8753 17.36 34.9419 17.38 35.0086 17.42C35.0753 17.4733 35.1086 17.5333 35.1086 17.6V18.32ZM41.0772 1.94C41.0772 1.38 41.1839 1.00667 41.3972 0.82C41.6105 0.619999 42.0105 0.519999 42.5972 0.519999H51.4372C51.7572 0.519999 52.0105 0.539999 52.1972 0.579999C52.3972 0.619999 52.5505 0.693333 52.6572 0.799999C52.7772 0.906666 52.8572 1.05333 52.8972 1.24C52.9372 1.42667 52.9572 1.66 52.9572 1.94V5.26C52.9572 5.82 52.8505 6.2 52.6372 6.4C52.4239 6.58667 52.0239 6.68 51.4372 6.68H42.5972C42.2772 6.68 42.0172 6.66 41.8172 6.62C41.6305 6.58 41.4772 6.50667 41.3572 6.4C41.2505 6.28 41.1772 6.13333 41.1372 5.96C41.0972 5.77333 41.0772 5.54 41.0772 5.26V1.94ZM53.4172 18.56C53.4172 18.6267 53.3839 18.68 53.3172 18.72C53.2639 18.7733 53.2105 18.8 53.1572 18.8H42.5172C41.8905 18.8 41.4772 18.68 41.2772 18.44C41.0905 18.2133 40.9972 17.82 40.9972 17.26V15.98C40.9972 15.42 41.1105 15.0467 41.3372 14.86C41.5772 14.66 41.9972 14.56 42.5972 14.56H51.1972C51.3839 14.56 51.5039 14.5333 51.5572 14.48C51.6105 14.4267 51.6372 14.3 51.6372 14.1V13.14C51.6372 12.94 51.6105 12.8133 51.5572 12.76C51.5172 12.7067 51.4039 12.68 51.2172 12.68H41.2372C41.1705 12.68 41.1039 12.66 41.0372 12.62C40.9839 12.58 40.9572 12.5267 40.9572 12.46V11.76C40.9572 11.6933 40.9839 11.64 41.0372 11.6C41.1039 11.56 41.1705 11.54 41.2372 11.54H46.2972V9.58H38.5172C38.4372 9.58 38.3639 9.55333 38.2972 9.5C38.2439 9.44667 38.2172 9.38667 38.2172 9.32V8.64C38.2172 8.56 38.2439 8.5 38.2972 8.46C38.3639 8.40667 38.4372 8.38 38.5172 8.38H55.5172C55.5839 8.38 55.6505 8.40667 55.7172 8.46C55.7839 8.5 55.8172 8.56 55.8172 8.64V9.32C55.8172 9.38667 55.7839 9.44667 55.7172 9.5C55.6505 9.55333 55.5839 9.58 55.5172 9.58H47.6772V11.54H51.4172C51.7372 11.54 51.9972 11.5667 52.1972 11.62C52.3972 11.66 52.5572 11.7333 52.6772 11.84C52.7972 11.9467 52.8772 12.1 52.9172 12.3C52.9705 12.4867 52.9972 12.72 52.9972 13V14.28C52.9972 14.84 52.8772 15.22 52.6372 15.42C52.4105 15.6067 51.9972 15.7 51.3972 15.7H42.7772C42.5905 15.7 42.4705 15.7267 42.4172 15.78C42.3772 15.8333 42.3572 15.96 42.3572 16.16V17.18C42.3572 17.3667 42.3839 17.4867 42.4372 17.54C42.4905 17.6067 42.6105 17.64 42.7972 17.64H53.1372C53.2039 17.64 53.2639 17.66 53.3172 17.7C53.3839 17.74 53.4172 17.7933 53.4172 17.86V18.56ZM42.9372 1.72C42.7505 1.72 42.6239 1.76 42.5572 1.84C42.4905 1.90667 42.4572 2.04 42.4572 2.24V4.96C42.4572 5.16 42.4905 5.3 42.5572 5.38C42.6239 5.44667 42.7505 5.48 42.9372 5.48H51.0972C51.2839 5.48 51.4105 5.44667 51.4772 5.38C51.5439 5.3 51.5772 5.16 51.5772 4.96V2.24C51.5772 2.04 51.5439 1.90667 51.4772 1.84C51.4105 1.76 51.2839 1.72 51.0972 1.72H42.9372Z" fill="black"/>
</svg>
